<svg xmlns="http://www.w3.org/2000/svg" width="374" height="197" viewBox="0 0 74.33 39.23" shape-rendering="geometricPrecision" text-rendering="geometricPrecision" image-rendering="optimizeQuality" fill-rule="evenodd" clip-rule="evenodd"><defs><linearGradient id="a" gradientUnits="userSpaceOnUse" x1="22.53" y1="15.84" x2="49.71" y2="30.68"><stop offset="0" stop-color="#fdbb0d"/><stop offset="1" stop-color="#ef6a1d"/></linearGradient></defs><path d="M28.45 22.98c-.09.02-.18.03-.27.05-.67.1-1.32.12-1.99.16-.37.02-.83.06-1.17.21-.4.18-.62.55-.79.93-.06.15-.17.47-.22.79.28-.18.56-.37.69-.45 1.11-.71 2.39-1.17 3.55-.24.06.05.11.1.16.15-.02-.53-.02-1.07.04-1.6zM42.57 0c4.05 0 7.81 1.26 10.91 3.41-2.1-.4-6.27-.05-7.09.44 7.09-.44 14.97 2.32 19.64 7.26 3.02-.02 4.57 2.37 6.58 1.7l1.72-.58-.5 1.75c-.01.01-.01.02-.01.03-.03.3-.15.45-.31.68-.29.44-.7.76-1.2.94-1.14.4-2.16-.02-3.23-.35-.75-.23-1.51-.34-2.26-.25-.26.44-.43.93-.55 1.43-.31 1.37-.04 1.03-1.06 2.11-.78.82-.93 1.33-.95 2.44v.06l-.19 1.39-.67.13c-.87.17-2.02.31-2.95.02.25.3.54.54.8.72-1.9 8.56-9.55 14.96-18.68 14.96-4.06 0-7.83-1.27-10.93-3.43.09.34.4.51.7.74l.18.06 1.47 1.77-.66.62c-1.49 1.39-3.17 1.25-5.03 1.08l-.83-.07-.04-.84c-.04-.79-.15-1.77-.1-2.56.05-.7.21-1.47.3-2.17h-6.28c-1.16 0-2.1-.9-2.1-1.99 0-1.1.94-2 2.1-2h5.42c-.25-.85-.66-1.45-.84-2.16l-.27.18c-1.02.7-2.05 1.38-3.34 1.04l-.14-.03-.12-.07c-.83-.51-1.14-1.7-1.15-2.95h-6.6c-1.15 0-2.1-.89-2.1-1.99s.95-1.99 2.1-1.99h6.94c.89-.23 1.56-1.01 1.56-1.93 0-1.1-.95-1.99-2.1-1.99h-4.75c-1.15 0-2.1-.9-2.1-2s.95-1.99 2.1-1.99h18.61c1.15 0 2.1-.9 2.1-2 0-1.09-.95-1.99-2.1-1.99H25.08c-1.15 0-2.1-.9-2.1-1.99 0-1.1.95-2 2.1-2H29C32.47 2.16 37.27 0 42.57 0zM8.92 13.62H2.1c-1.15 0-2.1.89-2.1 1.99s.95 2 2.1 2h6.82c1.16 0 2.1-.9 2.1-2s-.95-1.99-2.1-1.99zm9.62-7.98h-3.15c-1.15 0-2.1.9-2.1 2 0 1.09.95 1.99 2.1 1.99h3.15c1.16 0 2.1-.9 2.1-1.99 0-1.1-.94-2-2.1-2z" fill="url(#a)"/><path d="M48.39 4.86l3.67 3.93 6.6-.02c1.93 2.99 3.05 6.55 3.05 10.37 0 .28-.01.55-.02.83-.36-.66-.7-1.17-.7-1.17s-.47-.01-.85.48c-.91 1.15-.46 2.41.25 3.27-.12-.04-.25-.09-.36-.15l-.64.12c-.87.15-1.76.98-2.41 1.63-.43.43-.64.99-1.1 1.42-.4.38-.87.56-1.41.61-.73.07-.88-.15-1.41-.2-.51-.05-1.98.57-2.57.7l-.34.08c-1.06.97-2.66 1.44-4.01 1.72-2.13.46-3.45.36-5.04.15-.99 1.5-2.82.52-4.19.21-2.76.36-6.8 2.47-5.4 7.32 0 .33-1.2-.49-.84-1.58.04-1.29.28-4.59 4.38-6.41l-2.54-.3s-1.9 3.02-2.71 5.62h-1.21c.23-1.74.19-2.26-.05-3.99h-.01c1.16 0 2.11-.89 2.11-1.99 0-.62-.3-1.17-.77-1.54l-.01-.27c-.01-.19-.03-.38-.05-.57-.08-.87-.12-1.88.14-2.72.14-.48.4-.85.55-1.29l.06-.22.28-1.32-.95.96c-.94.94-.33.91-1.91 1.15-2.1.32-3.94-.27-4.98 2.1-.23.51-.38 1.16-.37 1.72h-.75c.01-1.07.27-2.22.47-2.68 1.48-3.29 4.17-1.38 9.54-4.86 1.33-.86 3.09-2.07 4.93-2.24l-1.2.99-.09.07-.3.31c4.34-2.31 9.13-6.61 11.73-10.86.41-.67.52-1.33 1.43-1.38zM27.44 25.51h-1.52c.48-.24 1.03-.39 1.48-.03l.04.03z" fill="#d65e13"/><path d="M63.5 17.12c.26-.21.61-.36.36-.88-.11-.23-.36-.39-.58-.56-.2.53 0 .99.22 1.44zm-7.35 3.47c-1.95-.83-5.2-1.03-7.74-.78-.42-1.7-.77-1.98-.89-3.97-.21 1.18.03 3.35.87 4.43 2.06.15 4.24-.4 6.13.39l-1.69 1.64-.82-.23c.3.4.25.31.73.58 1.32-.76 2.14-2.08 3.41-2.06zM31.96 36.48l.72.87c-1.28 1.2-2.92.95-4.3.83-.15-3.13-.17-1.8.2-4.58.26-1.98.2-2.41-.1-4.57-.13-.92 1.28-.52.94-3.86-.31-3.07.57-3.51.75-4.35-.81.81-.34.99-2.13 1.26-2.22.34-3.75-.25-4.68 1.87-.28.64-.56 1.84-.03 2.48 1.05.07 2.88-2.42 4.32-1.26 1.28 1.04.71 3.4.09 4.26-.39-1.51-1.25-2.16-.79-3.53-1.59.15-2.78 2.15-4.4 1.74-1.14-.69-.58-3.96-.2-4.81 1.47-3.29 4.17-1.38 9.53-4.86 1.34-.86 3.1-2.07 4.94-2.24l-1.2.99c-.03.02-.06.05-.08.07l-.31.31c4.34-2.31 9.13-6.61 11.73-10.86.46-.74.54-1.47 1.75-1.38 4.67.32 9.31 1.83 13.01 4.17.96.61 2.8 1.81 3.6 2.72l-.84.56c4.05-1.21 5.39 2.42 8.43 1.4-.1.35.04.1-.19.45-.84 1.25-2.74.4-3.36.21-1.31-.41-2.76-.49-4.21.12l.9-.03c-.3.49-.55 1.08-.71 1.79-.3 1.31.07.73-.82 1.66-.98 1.03-1.19 1.78-1.21 3.08l-.09.66c-2.25.44-4.12.15-3.08-2.37-.17-.3-.42-.37-.98-1.88-.41-1.12-.41-1.64-.43-2.74l-.17.67c-.02.28 0 .56.04.87.05.37.11.65.19 1.01.02.09.08.33.1.41l.01.51c-.51.24-3.51-1.31-4.08-1.68.01-.55.7-2.59-.27-3.91.44 2.25.39 2.22-.16 4 1.21 1.05 3.93 1.71 4.22 2.63.22.67.42 1.68.61 2.41-4.42.78-3.21 2.94-5.05 3.11-.59.06-.84-.16-1.22-.2-.83-.09-2.01.53-2.87.72l.77-2.13c-1.18.96-.07 2.85-5.12 3.93-3.09.66-4.46.11-7.01-.16.37.14 1.18.37 1.42.65-.58.95-1.75.2-2.84-.04.22-.79.74-1.04 1.24-2.93.3-1.16.26-2.51-.22-3.8.19 1.88.18 3.67-.52 4.91-1.05 1.85-1.71 1.89-3.73 3.08-1.55.92-2.44 2.27-2.95 3.57-.27.7-.45 1.56-.45 2.39 0 .71.22 1 1.1 1.69.41.31-.02.04.19.11z" fill="#fefefe"/><path d="M46.27 5.64c-4.35 7.11-6.59 6.97-9.92 10.16l.44-1.34c-1.16.57-4.15 1.98-5.6 2.92-5.37 3.48-8.06 1.57-9.54 4.86-.38.84-.93 4.12.2 4.8.09.03.18.04.26.05-.18-.42-.24-.98-.23-1.58.01-1.07.27-2.22.47-2.68 1.47-3.29 4.17-1.38 9.53-4.86 1.88-1.21 1.9-1.17 4.08-1.53l-.34.28-.08.07-.31.31c4.34-2.31 9.13-6.61 11.73-10.86.41-.67.52-1.33 1.43-1.38.1-.01.2-.01.32 0 4.67.32 9.31 1.83 13.01 4.17.65.41 1.69 1.08 2.54 1.76-.9-.85-2.4-1.83-3.24-2.36-3.7-2.34-8.34-3.84-13.01-4.17-1.21-.08-1.29.64-1.74 1.38z" fill="#fbae10"/></svg>