<svg xmlns="http://www.w3.org/2000/svg" width="505" height="134" viewBox="0 0 136.23 36.25" shape-rendering="geometricPrecision" text-rendering="geometricPrecision" image-rendering="optimizeQuality" fill-rule="evenodd" clip-rule="evenodd"><defs><style>.fil0,.fil1{fill:#f08519;fill-rule:nonzero}.fil0{fill:#fff}</style></defs><g id="Layer_x0020_1"><g id="_1926355067216"><path class="fil0" d="M0 19.3V0h13.26v3.26H3.91v4.59H12v3.26H3.91v8.19z"/><path id="1" class="fil0" d="M19.19 9.62l-3.34-.59c.37-1.36 1.03-2.38 1.95-3.03.92-.66 2.29-.99 4.1-.99 1.65 0 2.88.2 3.69.59.81.39 1.38.88 1.71 1.49.32.6.49 1.7.49 3.31l-.05 4.31c0 1.23.05 2.13.17 2.72.12.58.34 1.21.66 1.87H24.9c-.09-.24-.21-.6-.35-1.08-.06-.22-.1-.36-.13-.43-.63.62-1.3 1.09-2.02 1.4-.72.31-1.48.46-2.3.46-1.43 0-2.56-.39-3.39-1.17-.83-.78-1.24-1.77-1.24-2.96 0-.79.19-1.49.57-2.11.37-.62.9-1.09 1.58-1.42.68-.33 1.66-.62 2.94-.86 1.73-.33 2.92-.63 3.59-.91v-.38c0-.71-.18-1.23-.53-1.54-.35-.3-1.02-.45-1.99-.45-.66 0-1.17.13-1.54.39-.37.26-.67.72-.9 1.38zm4.96 3c-.47.15-1.22.34-2.25.56-1.03.22-1.7.44-2.01.65-.48.34-.73.77-.73 1.3 0 .52.2.96.58 1.34.39.38.88.57 1.48.57.66 0 1.3-.22 1.91-.66.44-.34.74-.74.88-1.22.09-.32.14-.92.14-1.81v-.73z"/><path id="2" class="fil0" d="M30.11 15.37l3.72-.57c.16.71.48 1.26.96 1.63.48.37 1.16.55 2.03.55.96 0 1.68-.17 2.16-.52.33-.25.49-.58.49-.99 0-.28-.09-.52-.27-.7-.18-.18-.6-.34-1.23-.49-2.99-.66-4.88-1.26-5.68-1.81-1.11-.76-1.67-1.81-1.67-3.15 0-1.22.49-2.24 1.44-3.07.96-.82 2.44-1.24 4.45-1.24 1.91 0 3.34.32 4.27.94.93.63 1.57 1.56 1.92 2.78l-3.48.65c-.14-.55-.43-.97-.85-1.26-.42-.29-1.01-.44-1.79-.44-.98 0-1.68.14-2.11.41-.28.2-.42.45-.42.75 0 .27.12.49.37.68.33.24 1.49.59 3.47 1.04 1.97.45 3.35 1 4.13 1.65.78.65 1.17 1.57 1.17 2.75 0 1.28-.54 2.39-1.61 3.31-1.07.92-2.66 1.38-4.76 1.38-1.9 0-3.41-.38-4.53-1.15a5.303 5.303 0 01-2.18-3.13z"/><path id="3" class="fil0" d="M52.82 5.31v2.94h-2.54v5.67c0 1.15.02 1.81.07 2 .05.19.16.35.34.48.17.12.37.18.62.18.35 0 .84-.12 1.49-.36l.31 2.88c-.86.37-1.83.55-2.91.55-.67 0-1.27-.11-1.8-.33-.54-.23-.93-.52-1.17-.88-.26-.36-.43-.84-.52-1.45-.08-.43-.12-1.3-.12-2.62V8.25h-1.7V5.31h1.7V2.53L50.28.35v4.96h2.54z"/><path id="4" class="fil1" d="M59.77 19.3V3.26h-5.71V0h15.31v3.26h-5.69V19.3z"/><path id="5" class="fil1" d="M73.92 19.3h-3.7V5.31h3.43V7.3c.58-.94 1.11-1.56 1.59-1.85.47-.29 1-.44 1.6-.44.85 0 1.66.24 2.44.7l-1.15 3.23c-.62-.41-1.2-.61-1.73-.61s-.97.14-1.33.43c-.35.28-.64.8-.84 1.54-.21.75-.31 2.31-.31 4.69v4.31z"/><path id="6" class="fil1" d="M83.62 9.62l-3.34-.59c.38-1.36 1.03-2.38 1.95-3.03.92-.66 2.29-.99 4.11-.99 1.65 0 2.88.2 3.69.59.8.39 1.37.88 1.7 1.49.33.6.49 1.7.49 3.31l-.05 4.31c0 1.23.06 2.13.18 2.72.11.58.33 1.21.66 1.87h-3.67c-.09-.24-.22-.6-.35-1.08-.06-.22-.11-.36-.14-.43-.62.62-1.3 1.09-2.02 1.4-.72.31-1.48.46-2.29.46-1.44 0-2.57-.39-3.4-1.17-.82-.78-1.24-1.77-1.24-2.96 0-.79.19-1.49.57-2.11.38-.62.9-1.09 1.59-1.42.68-.33 1.65-.62 2.94-.86 1.72-.33 2.92-.63 3.59-.91v-.38c0-.71-.18-1.23-.53-1.54-.36-.3-1.02-.45-2-.45-.66 0-1.17.13-1.54.39-.37.26-.67.72-.9 1.38zm4.97 3c-.48.15-1.23.34-2.26.56-1.02.22-1.69.44-2.01.65-.48.34-.72.77-.72 1.3 0 .52.19.96.58 1.34.38.38.87.57 1.47.57.67 0 1.3-.22 1.91-.66.45-.34.74-.74.88-1.22.1-.32.15-.92.15-1.81v-.73z"/><path id="7" class="fil1" d="M108.7 19.3h-3.42v-2.05c-.57.8-1.25 1.4-2.03 1.8-.78.4-1.56.6-2.35.6-1.62 0-3-.64-4.15-1.94-1.14-1.3-1.72-3.11-1.72-5.43 0-2.37.56-4.18 1.68-5.41 1.12-1.24 2.53-1.86 4.24-1.86 1.56 0 2.92.66 4.06 1.95V0h3.69v19.3zm-9.87-7.26c0 1.49.21 2.58.62 3.25.6.97 1.43 1.45 2.5 1.45.85 0 1.57-.36 2.16-1.09.6-.73.9-1.81.9-3.26 0-1.61-.29-2.77-.87-3.48-.58-.71-1.32-1.06-2.22-1.06-.88 0-1.61.35-2.2 1.05-.59.7-.89 1.74-.89 3.14z"/><path id="8" class="fil1" d="M120.42 14.88l3.7.62c-.48 1.35-1.23 2.38-2.25 3.09s-2.3 1.06-3.83 1.06c-2.43 0-4.24-.79-5.4-2.38-.92-1.28-1.38-2.89-1.38-4.83 0-2.32.6-4.14 1.81-5.45 1.21-1.32 2.74-1.98 4.59-1.98 2.08 0 3.72.69 4.92 2.07 1.2 1.37 1.78 3.48 1.73 6.32h-9.25c.03 1.09.32 1.95.89 2.56.57.61 1.28.92 2.12.92.58 0 1.07-.16 1.46-.48.39-.31.69-.82.89-1.52zm.22-3.75c-.03-1.07-.3-1.89-.83-2.44-.52-.57-1.16-.84-1.92-.84-.8 0-1.47.29-1.99.88-.53.59-.78 1.39-.77 2.4h5.51z"/><path id="9" class="fil1" d="M130.86 19.3h-3.69V5.31h3.42V7.3c.59-.94 1.12-1.56 1.59-1.85.47-.29 1.01-.44 1.61-.44.84 0 1.65.24 2.44.7l-1.15 3.23c-.63-.41-1.2-.61-1.74-.61-.52 0-.96.14-1.32.43-.36.28-.64.8-.85 1.54-.21.75-.31 2.31-.31 4.69v4.31z"/><path class="fil0" d="M6.32 26.72c0 .42-.07.82-.21 1.2-.13.38-.32.7-.56.97-.3.33-.66.59-1.06.76-.41.17-.93.25-1.55.25h-.99v3.64H.78v-9.77h2.2c.52 0 .96.05 1.33.14.36.1.68.26.96.47.33.25.58.57.77.95.18.38.28.85.28 1.39zm-1.23.03c0-.34-.05-.63-.15-.87-.11-.25-.26-.45-.47-.61-.19-.13-.4-.23-.65-.28-.24-.06-.54-.09-.91-.09h-.96v3.87h.79c.47 0 .85-.04 1.14-.13.29-.08.53-.23.72-.45.17-.19.3-.4.38-.63.08-.24.11-.5.11-.81z"/><path id="1" class="fil0" d="M12.5 29.88c0 1.24-.27 2.19-.81 2.86-.53.67-1.24 1-2.13 1-.92 0-1.64-.34-2.16-1.03-.53-.7-.79-1.64-.79-2.83 0-1.22.27-2.17.81-2.85.54-.68 1.25-1.01 2.14-1.01.89 0 1.6.33 2.13 1.01.54.68.81 1.62.81 2.85zm-1.15 0c0-.94-.16-1.64-.47-2.1-.31-.46-.75-.69-1.32-.69-.58 0-1.02.23-1.33.69-.32.46-.47 1.16-.47 2.1 0 .92.15 1.61.47 2.08.31.47.75.71 1.33.71.57 0 1.01-.23 1.32-.69.31-.47.47-1.17.47-2.1z"/><path id="2" class="fil0" d="M21.62 26.22l-1.66 7.32h-1.03l-1.61-5.64-1.6 5.64H14.7l-1.68-7.32h1.15l1.16 5.67 1.57-5.67h.91l1.6 5.67 1.1-5.67z"/><path id="3" class="fil0" d="M25.47 33.7c-1.05 0-1.87-.32-2.45-.98-.58-.66-.87-1.59-.87-2.8 0-1.19.28-2.14.84-2.85.56-.7 1.3-1.05 2.21-1.05.41 0 .78.06 1.09.19.32.13.59.34.83.62.24.28.42.62.54 1.03.13.4.19.89.19 1.48v.67h-4.58c0 .85.19 1.5.58 1.94.39.46.92.68 1.61.68a2.959 2.959 0 001.35-.33c.2-.1.38-.2.51-.29.14-.1.26-.19.35-.27h.06v1.35c-.13.05-.29.13-.48.21-.2.09-.37.15-.52.2-.22.07-.42.12-.59.15-.18.04-.4.05-.67.05zm1.31-4.63c-.01-.33-.05-.62-.11-.86s-.16-.44-.27-.61c-.13-.18-.3-.32-.5-.42-.21-.1-.46-.14-.76-.14s-.55.05-.76.15c-.21.09-.39.24-.56.42-.17.2-.3.41-.38.64-.09.23-.15.51-.17.82h3.51z"/><path id="4" class="fil0" d="M32.46 27.55h-.06c-.08-.03-.17-.04-.26-.05-.09 0-.2-.01-.33-.01-.3 0-.6.08-.89.22-.3.15-.58.36-.84.64v5.19h-1.11v-7.32h1.11v1.09c.41-.4.76-.68 1.06-.85.3-.16.59-.24.87-.24.12 0 .2 0 .26.01.06 0 .12.01.19.03v1.29z"/><path id="5" class="fil0" d="M36.13 33.7c-1.05 0-1.87-.32-2.45-.98-.58-.66-.87-1.59-.87-2.8 0-1.19.28-2.14.84-2.85.57-.7 1.3-1.05 2.21-1.05.41 0 .78.06 1.09.19.32.13.59.34.83.62.24.28.42.62.54 1.03.13.4.19.89.19 1.48v.67h-4.58c0 .85.19 1.5.58 1.94.39.46.92.68 1.61.68a2.959 2.959 0 001.35-.33c.2-.1.38-.2.51-.29.14-.1.26-.19.35-.27h.06v1.35c-.13.05-.29.13-.48.21-.2.09-.37.15-.52.2-.22.07-.42.12-.59.15-.18.04-.4.05-.67.05zm1.31-4.63c-.01-.33-.05-.62-.11-.86s-.15-.44-.27-.61c-.13-.18-.3-.32-.5-.42-.21-.1-.46-.14-.76-.14s-.55.05-.76.15c-.2.09-.39.24-.56.42-.17.2-.29.41-.38.64-.09.23-.14.51-.17.82h3.51z"/><path id="6" class="fil0" d="M44.72 33.54h-1.11v-.75c-.18.16-.33.3-.45.4-.13.11-.28.21-.45.29-.15.09-.32.15-.49.2-.17.04-.37.06-.59.06-.36 0-.69-.08-1-.24-.31-.17-.57-.41-.78-.73-.22-.32-.38-.72-.5-1.2-.12-.47-.18-1.02-.18-1.63 0-.65.07-1.2.23-1.67.14-.47.35-.88.62-1.23.24-.32.53-.57.87-.75.34-.18.7-.27 1.08-.27.33 0 .62.04.86.12.24.08.5.2.78.38v-3.19h1.11v10.21zm-1.11-1.78v-4.22c-.28-.14-.53-.24-.75-.3-.22-.05-.45-.08-.71-.08-.57 0-1.02.24-1.35.71-.32.47-.48 1.15-.48 2.05 0 .86.12 1.52.37 1.97.25.46.65.69 1.2.69.29 0 .58-.08.88-.23.3-.14.58-.34.84-.59z"/><path id="7" class="fil0" d="M54.49 29.85c0-.87-.12-1.54-.36-1.99-.24-.45-.63-.67-1.16-.67-.31 0-.61.07-.93.23-.31.16-.59.36-.84.6v4.19c.28.16.53.26.75.33.21.06.45.09.71.09.57 0 1.02-.22 1.34-.67.33-.44.49-1.15.49-2.11zm1.15-.09c0 1.2-.26 2.16-.79 2.89s-1.18 1.09-1.97 1.09c-.36 0-.67-.04-.92-.14-.26-.1-.51-.23-.76-.4l-.07.34h-1.04V23.33h1.11v3.66c.28-.28.59-.51.91-.7.33-.18.7-.27 1.12-.27.74 0 1.33.33 1.76.99.43.66.65 1.58.65 2.75z"/><path id="8" class="fil0" d="M61.93 26.22l-3.54 10.03H57.2l1.18-3.06-2.4-6.97h1.2l1.8 5.43 1.8-5.43z"/><path id="9" class="fil0" d="M72.6 30.54c0 .49-.08.92-.25 1.29-.16.37-.38.68-.66.92-.33.29-.69.49-1.07.61-.37.12-.86.18-1.46.18h-2.52v-9.77h2.33c.63 0 1.1.02 1.41.07.31.05.61.15.9.32.32.19.55.44.69.74.15.3.22.66.22 1.07 0 .46-.11.87-.33 1.24-.22.36-.52.64-.9.85v.05c.52.16.92.45 1.21.87.29.41.43.94.43 1.56zm-1.63-4.37c0-.23-.04-.44-.11-.61a.851.851 0 00-.34-.41c-.19-.11-.4-.18-.63-.21-.23-.03-.55-.04-.96-.04h-1.12v2.84h1.33c.36 0 .63-.02.81-.07.17-.04.35-.12.53-.25.18-.13.3-.29.38-.5.07-.2.11-.45.11-.75zm.41 4.42c0-.37-.05-.67-.14-.91-.1-.23-.29-.44-.57-.6a1.64 1.64 0 00-.61-.21c-.21-.03-.52-.04-.92-.04h-1.33v3.58h.95c.51 0 .91-.02 1.21-.07.29-.06.55-.17.78-.34.22-.17.37-.36.48-.57.1-.22.15-.5.15-.84z"/><path id="10" class="fil0" d="M74.88 33.54h-1.12v-7.32h1.12v7.32zm.08-8.56h-1.27V23.7h1.27v1.28z"/><path id="11" class="fil0" d="M81.68 33.54h-1.12v-4.17c0-.34-.01-.65-.04-.94-.03-.29-.08-.53-.17-.7a.946.946 0 00-.38-.41c-.16-.09-.38-.13-.66-.13-.27 0-.56.08-.85.24-.29.17-.58.38-.86.64v5.47h-1.11v-7.32h1.11v.81c.33-.33.66-.58.98-.75.33-.18.67-.26 1.02-.26.65 0 1.16.23 1.53.71.36.47.55 1.16.55 2.06v4.75z"/><path id="12" class="fil0" d="M86.91 31.74v-2.03c-.27.03-.6.07-1 .11-.4.04-.73.11-.97.19-.3.1-.54.26-.73.46-.19.21-.29.5-.29.87 0 .41.11.73.32.94.21.21.52.32.93.32.35 0 .66-.08.94-.25.29-.16.55-.37.8-.61zm0 1.02c-.09.08-.21.18-.37.31-.15.14-.29.24-.43.32-.2.12-.39.2-.57.26-.18.06-.44.09-.77.09a1.7 1.7 0 01-.77-.17c-.25-.11-.46-.27-.65-.47a2.57 2.57 0 01-.42-.75c-.11-.29-.16-.61-.16-.93 0-.51.1-.94.29-1.3.19-.36.5-.64.91-.85.37-.19.81-.32 1.31-.39s1.05-.13 1.63-.16v-.24c0-.29-.04-.53-.12-.71a.912.912 0 00-.33-.41c-.14-.11-.32-.17-.52-.21-.2-.03-.42-.05-.63-.05-.26 0-.56.05-.9.13-.35.09-.69.22-1.04.39h-.07v-1.26c.21-.06.5-.13.88-.21.39-.08.76-.12 1.14-.12.45 0 .83.04 1.15.12.31.08.59.22.83.42.24.21.42.47.54.79.12.32.18.71.18 1.16v5.02h-1.11v-.78z"/><path id="13" class="fil0" d="M93.07 27.55h-.06c-.08-.03-.17-.04-.26-.05-.09 0-.2-.01-.33-.01-.3 0-.6.08-.9.22-.29.15-.57.36-.83.64v5.19h-1.11v-7.32h1.11v1.09c.4-.4.76-.68 1.06-.85.3-.16.59-.24.87-.24.12 0 .2 0 .26.01.06 0 .12.01.19.03v1.29z"/><path id="14" class="fil0" d="M99.12 26.22l-3.55 10.03h-1.19l1.19-3.06-2.4-6.97h1.19l1.81 5.43 1.79-5.43z"/><path id="15" class="fil0" d="M100.63 33.54h-1.41v-1.87h1.41z"/><path id="16" class="fil0" d="M105.17 33.7c-.45 0-.87-.07-1.25-.23-.37-.15-.7-.39-.97-.7-.27-.32-.48-.71-.64-1.19-.14-.48-.22-1.05-.22-1.69 0-.65.08-1.2.23-1.67.16-.47.37-.86.63-1.18.26-.32.58-.56.97-.74.39-.17.8-.26 1.25-.26.36 0 .71.06 1.05.17.34.12.64.25.9.4v1.38h-.06c-.08-.07-.19-.16-.31-.25-.12-.1-.28-.2-.45-.3-.16-.08-.34-.16-.55-.22-.21-.07-.41-.1-.6-.1-.57 0-1.04.24-1.39.72-.35.48-.52 1.16-.52 2.05 0 .86.17 1.53.51 2.02.33.48.8.72 1.4.72.36 0 .71-.08 1.03-.25.33-.16.62-.38.88-.64h.06v1.39c-.11.05-.25.12-.41.2-.17.09-.32.14-.45.18-.19.06-.36.11-.51.15-.15.03-.34.04-.58.04z"/><path id="17" class="fil0" d="M113.56 29.88c0 1.24-.27 2.19-.8 2.86-.54.67-1.25 1-2.14 1-.92 0-1.64-.34-2.16-1.03-.53-.7-.79-1.64-.79-2.83 0-1.22.27-2.17.81-2.85.54-.68 1.26-1.01 2.14-1.01.89 0 1.6.33 2.14 1.01.53.68.8 1.62.8 2.85zm-1.15 0c0-.94-.16-1.64-.47-2.1-.31-.46-.75-.69-1.32-.69-.58 0-1.02.23-1.33.69-.32.46-.47 1.16-.47 2.1 0 .92.15 1.61.47 2.08.31.47.75.71 1.33.71.57 0 1.01-.23 1.32-.69.31-.47.47-1.17.47-2.1z"/><path id="18" class="fil0" d="M122.19 33.54V29.3c0-.33-.01-.64-.04-.93-.02-.29-.07-.51-.14-.67a.823.823 0 00-.34-.39c-.15-.08-.34-.12-.59-.12-.23 0-.47.07-.74.23-.26.16-.53.38-.81.68 0 .07.01.16.02.26v5.18h-1.11V29.3c0-.33-.01-.64-.03-.93-.03-.29-.08-.51-.15-.67a.774.774 0 00-.34-.39c-.14-.08-.34-.12-.59-.12-.24 0-.49.08-.76.25-.26.16-.52.38-.76.64v5.46h-1.12v-7.32h1.12v.81c.29-.32.58-.57.86-.75.29-.17.6-.26.95-.26.38 0 .73.09 1.03.29.3.2.53.52.69.97.34-.41.66-.73.98-.94.32-.22.67-.32 1.04-.32.29 0 .55.05.78.14.23.1.43.26.61.48.17.22.31.5.41.83.09.33.14.75.14 1.25v4.82h-1.11z"/></g></g></svg>