<svg xmlns="http://www.w3.org/2000/svg" width="505" height="134" viewBox="0 0 135.62 36.09" shape-rendering="geometricPrecision" text-rendering="geometricPrecision" image-rendering="optimizeQuality" fill-rule="evenodd" clip-rule="evenodd"><defs><style>.fil0,.fil1{fill:#f08519;fill-rule:nonzero}.fil0{fill:#039}</style></defs><g id="Layer_x0020_1"><g id="_1962548545808"><path class="fil0" d="M0 19.22V0h13.2v3.25H3.89v4.56h8.05v3.25H3.89v8.16z"/><path id="1" class="fil0" d="M19.11 9.58l-3.33-.59c.37-1.36 1.02-2.37 1.94-3.02.92-.65 2.28-.98 4.09-.98 1.64 0 2.86.19 3.67.58.8.39 1.37.89 1.69 1.48.33.6.5 1.7.5 3.3l-.06 4.3c0 1.22.06 2.12.18 2.7.11.58.33 1.21.66 1.87h-3.66c-.09-.24-.21-.6-.35-1.08-.06-.22-.1-.36-.13-.43-.62.62-1.3 1.08-2.01 1.39-.72.31-1.48.47-2.29.47-1.42 0-2.55-.39-3.37-1.17-.83-.78-1.24-1.76-1.24-2.95 0-.78.19-1.48.56-2.1.38-.61.9-1.09 1.58-1.42.68-.32 1.65-.61 2.93-.85 1.72-.33 2.91-.63 3.57-.91V9.8c0-.71-.17-1.22-.52-1.53-.35-.31-1.02-.46-1.99-.46-.65 0-1.16.13-1.53.39-.37.26-.67.72-.89 1.38zm4.93 2.98c-.47.16-1.21.35-2.24.56-1.02.22-1.69.44-2 .64-.48.35-.72.78-.72 1.3s.19.96.58 1.34c.38.37.87.56 1.46.56.66 0 1.3-.22 1.9-.65.45-.34.74-.74.88-1.22.09-.31.14-.91.14-1.8v-.73z"/><path id="2" class="fil0" d="M29.98 15.3l3.7-.56c.16.71.48 1.25.96 1.61.48.38 1.15.56 2.02.56.95 0 1.67-.18 2.15-.52.32-.25.48-.58.48-.99 0-.28-.09-.51-.26-.7-.18-.17-.6-.34-1.23-.48-2.98-.66-4.86-1.26-5.66-1.8-1.1-.76-1.65-1.8-1.65-3.14 0-1.21.48-2.23 1.43-3.05.95-.83 2.43-1.24 4.43-1.24 1.91 0 3.32.32 4.25.94.92.62 1.56 1.54 1.91 2.77l-3.46.64c-.15-.55-.43-.97-.85-1.26-.41-.29-1.01-.43-1.78-.43-.98 0-1.68.13-2.1.41-.28.19-.42.44-.42.74 0 .27.12.49.36.67.34.25 1.49.6 3.46 1.04 1.97.45 3.34 1 4.12 1.64.77.66 1.16 1.57 1.16 2.75 0 1.27-.54 2.37-1.6 3.29-1.07.92-2.65 1.38-4.74 1.38-1.9 0-3.4-.39-4.51-1.15-1.11-.77-1.83-1.81-2.17-3.12z"/><path id="3" class="fil0" d="M52.58 5.29v2.92h-2.52v5.64c0 1.15.02 1.82.07 2 .05.19.16.35.33.47s.38.19.62.19c.35 0 .84-.12 1.49-.36l.31 2.87c-.86.36-1.82.55-2.91.55-.66 0-1.25-.12-1.78-.34-.54-.22-.93-.51-1.17-.87-.25-.35-.42-.83-.52-1.44-.08-.43-.12-1.3-.12-2.61v-6.1h-1.69V5.29h1.69V2.52L50.06.35v4.94h2.52z"/><path id="4" class="fil1" d="M59.51 19.22V3.25h-5.69V0h15.24v3.25H63.4v15.97z"/><path id="5" class="fil1" d="M73.59 19.22h-3.68V5.29h3.41v1.97c.59-.93 1.11-1.54 1.58-1.83.47-.29 1.01-.44 1.6-.44.84 0 1.65.23 2.43.7L77.79 8.9c-.62-.41-1.2-.61-1.73-.61-.52 0-.96.15-1.32.43-.35.28-.64.79-.84 1.54-.21.74-.31 2.3-.31 4.66v4.3z"/><path id="6" class="fil1" d="M83.26 9.58l-3.33-.59c.37-1.36 1.02-2.37 1.94-3.02.92-.65 2.28-.98 4.09-.98 1.64 0 2.87.19 3.67.58.8.39 1.37.89 1.7 1.48.32.6.49 1.7.49 3.3l-.06 4.3c0 1.22.06 2.12.18 2.7.12.58.33 1.21.66 1.87h-3.65c-.1-.24-.22-.6-.36-1.08-.06-.22-.1-.36-.13-.43-.62.62-1.29 1.08-2.01 1.39-.72.31-1.48.47-2.29.47-1.42 0-2.55-.39-3.37-1.17-.83-.78-1.24-1.76-1.24-2.95 0-.78.19-1.48.57-2.1.37-.61.89-1.09 1.57-1.42.68-.32 1.66-.61 2.93-.85 1.72-.33 2.91-.63 3.57-.91V9.8c0-.71-.17-1.22-.52-1.53-.35-.31-1.01-.46-1.99-.46-.65 0-1.16.13-1.53.39-.37.26-.67.72-.89 1.38zm4.93 2.98c-.47.16-1.21.35-2.24.56-1.02.22-1.69.44-2 .64-.48.35-.72.78-.72 1.3s.19.96.58 1.34c.38.37.87.56 1.46.56.67 0 1.3-.22 1.9-.65.45-.34.74-.74.88-1.22.1-.31.14-.91.14-1.8v-.73z"/><path id="7" class="fil1" d="M108.22 19.22h-3.41v-2.05c-.57.8-1.24 1.39-2.01 1.8-.78.39-1.56.6-2.35.6-1.6 0-2.98-.65-4.12-1.94-1.14-1.29-1.72-3.09-1.72-5.4 0-2.37.56-4.16 1.67-5.39 1.12-1.23 2.52-1.85 4.22-1.85 1.56 0 2.91.65 4.04 1.94V0h3.68v19.22zm-9.82-7.24c0 1.49.2 2.57.61 3.24.6.96 1.42 1.45 2.49 1.45.84 0 1.56-.36 2.15-1.09.6-.72.89-1.8.89-3.24 0-1.61-.28-2.76-.86-3.47-.58-.71-1.31-1.06-2.21-1.06-.87 0-1.6.35-2.19 1.05-.59.7-.88 1.74-.88 3.12z"/><path id="8" class="fil1" d="M119.89 14.82l3.68.61c-.47 1.35-1.22 2.37-2.23 3.08-1.02.7-2.3 1.06-3.82 1.06-2.42 0-4.22-.8-5.38-2.38-.91-1.27-1.37-2.87-1.37-4.81 0-2.31.6-4.12 1.8-5.42 1.21-1.31 2.73-1.97 4.58-1.97 2.06 0 3.69.69 4.89 2.06 1.2 1.36 1.77 3.46 1.72 6.29h-9.21c.03 1.09.32 1.94.89 2.55.56.61 1.27.91 2.11.91.58 0 1.06-.15 1.45-.47.4-.31.69-.82.89-1.51zm.22-3.74c-.03-1.06-.3-1.88-.83-2.43-.52-.56-1.16-.84-1.91-.84-.8 0-1.46.3-1.98.88-.53.59-.78 1.39-.77 2.39h5.49z"/><path id="9" class="fil1" d="M130.28 19.22h-3.67V5.29h3.41v1.97c.58-.93 1.11-1.54 1.58-1.83.47-.29 1-.44 1.6-.44.84 0 1.65.23 2.42.7l-1.14 3.21c-.62-.41-1.2-.61-1.73-.61-.52 0-.95.15-1.31.43-.36.28-.64.79-.85 1.54-.2.74-.31 2.3-.31 4.66v4.3z"/><path class="fil0" d="M6.29 26.6c0 .42-.07.82-.21 1.2-.13.38-.32.7-.55.96-.3.33-.66.59-1.06.75-.41.17-.92.26-1.54.26h-.99v3.63H.78v-9.73h2.19c.52 0 .95.04 1.32.14.36.1.68.25.96.46.32.25.58.57.76.95.19.38.28.84.28 1.38zm-1.22.03c0-.33-.05-.62-.15-.87-.11-.24-.26-.45-.47-.6-.19-.14-.4-.23-.64-.28-.24-.06-.55-.09-.91-.09h-.96v3.85h.79c.47 0 .85-.04 1.13-.12.29-.09.53-.24.72-.45.17-.2.3-.41.38-.64.07-.23.11-.49.11-.8z"/><path id="1" class="fil0" d="M12.44 29.75c0 1.23-.26 2.18-.8 2.84-.53.67-1.24 1.01-2.12 1.01-.92 0-1.63-.35-2.16-1.04-.52-.69-.78-1.62-.78-2.81 0-1.22.27-2.16.81-2.84.54-.67 1.25-1.01 2.13-1.01.88 0 1.59.34 2.12 1.01.54.67.8 1.62.8 2.84zm-1.14 0c0-.94-.16-1.64-.46-2.09-.31-.46-.75-.69-1.32-.69-.58 0-1.02.23-1.33.69-.31.45-.47 1.15-.47 2.09 0 .91.16 1.6.47 2.07.31.47.75.71 1.33.71.56 0 1-.23 1.31-.7.31-.46.47-1.15.47-2.08z"/><path id="2" class="fil0" d="M21.53 26.1l-1.66 7.3h-1.02l-1.61-5.63-1.59 5.63h-1.01l-1.68-7.3h1.14l1.17 5.65 1.55-5.65h.91l1.6 5.65 1.09-5.65z"/><path id="3" class="fil0" d="M25.36 33.56c-1.05 0-1.86-.33-2.44-.99-.58-.65-.87-1.58-.87-2.78 0-1.19.28-2.13.84-2.84.56-.7 1.29-1.05 2.2-1.05.41 0 .77.07 1.08.2.32.13.59.33.83.61.24.28.42.62.54 1.02.13.4.19.9.19 1.48v.67h-4.56c0 .84.19 1.49.58 1.93.38.45.91.68 1.59.68.25 0 .49-.04.72-.1.24-.06.45-.14.63-.23.2-.1.38-.2.51-.29.14-.1.25-.19.35-.27h.06v1.34c-.13.06-.29.13-.48.21-.2.09-.37.16-.52.2-.22.07-.41.12-.59.15-.17.04-.39.06-.66.06zm1.3-4.62c-.01-.33-.05-.62-.11-.86-.06-.23-.15-.44-.27-.6-.13-.18-.3-.32-.5-.42-.2-.09-.45-.14-.75-.14s-.55.05-.75.15c-.21.09-.4.23-.57.42-.17.19-.29.41-.38.64-.08.23-.14.5-.16.81h3.49z"/><path id="4" class="fil0" d="M32.32 27.43h-.06c-.08-.03-.17-.04-.26-.05-.09 0-.2-.01-.33-.01-.3 0-.59.07-.89.22-.29.14-.57.35-.83.64v5.17h-1.11v-7.3h1.11v1.09c.4-.4.75-.68 1.05-.84.3-.17.59-.25.87-.25.12 0 .2 0 .26.01.05.01.12.02.19.03v1.29z"/><path id="5" class="fil0" d="M35.97 33.56c-1.04 0-1.86-.33-2.44-.99-.58-.65-.87-1.58-.87-2.78 0-1.19.28-2.13.84-2.84.56-.7 1.3-1.05 2.21-1.05.4 0 .77.07 1.08.2.31.13.59.33.82.61.24.28.42.62.54 1.02.13.4.19.9.19 1.48v.67h-4.56c0 .84.19 1.49.58 1.93.38.45.92.68 1.6.68.24 0 .48-.04.71-.1.24-.06.45-.14.64-.23.2-.1.37-.2.51-.29.13-.1.25-.19.34-.27h.06v1.34c-.13.06-.29.13-.48.21-.19.09-.37.16-.52.2-.21.07-.41.12-.58.15-.18.04-.4.06-.67.06zm1.3-4.62a4.15 4.15 0 00-.1-.86c-.07-.23-.16-.44-.27-.6-.14-.18-.3-.32-.5-.42a1.91 1.91 0 00-.76-.14c-.29 0-.54.05-.75.15-.21.09-.4.23-.56.42-.17.19-.3.41-.38.64-.09.23-.14.5-.17.81h3.49z"/><path id="6" class="fil0" d="M44.52 33.4h-1.11v-.75c-.17.16-.32.29-.44.4a2.622 2.622 0 01-.94.48c-.16.04-.36.07-.59.07-.35 0-.68-.09-.99-.25-.3-.17-.56-.41-.77-.73-.22-.32-.39-.71-.51-1.19A7.16 7.16 0 0139 29.8c0-.64.07-1.19.22-1.66s.36-.87.62-1.22c.24-.32.53-.57.87-.75.34-.18.7-.27 1.07-.27.33 0 .62.04.86.12.25.08.5.21.77.38v-3.18h1.11V33.4zm-1.11-1.78v-4.2c-.27-.14-.52-.25-.74-.3-.21-.05-.45-.08-.71-.08-.57 0-1.01.24-1.34.71-.32.47-.48 1.15-.48 2.04 0 .85.13 1.51.37 1.96.25.45.65.68 1.19.68.29 0 .59-.07.88-.22.3-.15.58-.34.83-.59z"/><path id="7" class="fil0" d="M54.25 29.72c0-.87-.12-1.53-.36-1.98-.24-.45-.63-.67-1.16-.67-.3 0-.61.07-.91.23-.31.16-.59.36-.84.6v4.17c.27.15.52.26.74.32.21.06.45.1.71.1.57 0 1.01-.23 1.34-.67.32-.44.48-1.14.48-2.1zm1.14-.09c0 1.19-.26 2.15-.78 2.88-.53.72-1.18 1.09-1.97 1.09-.35 0-.66-.05-.91-.15-.26-.1-.51-.23-.75-.4l-.07.35h-1.04V23.22h1.11v3.65c.27-.28.58-.51.9-.69.33-.19.7-.28 1.11-.28.75 0 1.33.33 1.76.99.43.66.64 1.57.64 2.74z"/><path id="8" class="fil0" d="M61.66 26.1l-3.53 9.99h-1.18l1.17-3.05-2.38-6.94h1.18l1.8 5.42 1.79-5.42z"/><path id="9" class="fil0" d="M72.28 30.41c0 .48-.08.91-.25 1.28-.16.37-.38.67-.66.91-.33.29-.68.5-1.06.61-.37.13-.86.19-1.45.19h-2.51v-9.73h2.32c.62 0 1.09.02 1.4.07.31.04.61.15.9.32.31.18.54.43.69.73.14.3.21.66.21 1.07 0 .46-.11.86-.32 1.23-.22.36-.52.64-.91.85v.05c.52.15.93.44 1.21.86.29.41.43.93.43 1.56zm-1.62-4.36c0-.23-.04-.43-.11-.6a.851.851 0 00-.34-.41c-.19-.11-.4-.18-.63-.21-.23-.03-.54-.04-.95-.04h-1.11v2.82h1.31c.37 0 .64-.02.81-.06.17-.04.35-.12.53-.25.18-.13.3-.29.38-.5.07-.2.11-.45.11-.75zm.41 4.4c0-.36-.05-.66-.14-.9-.1-.23-.29-.43-.57-.6-.19-.11-.39-.18-.6-.21-.22-.03-.53-.04-.93-.04h-1.31v3.57h.94c.51 0 .91-.03 1.2-.08.29-.05.55-.16.77-.33.22-.17.38-.36.48-.57.11-.22.16-.5.16-.84z"/><path id="10" class="fil0" d="M74.55 33.4h-1.11v-7.3h1.11v7.3zm.08-8.53h-1.26V23.6h1.26v1.27z"/><path id="11" class="fil0" d="M81.32 33.4h-1.11v-4.16c0-.33-.02-.65-.05-.94-.03-.29-.08-.52-.16-.69a.894.894 0 00-.38-.41c-.16-.09-.38-.13-.66-.13-.27 0-.55.08-.85.24-.29.16-.57.38-.85.64v5.45h-1.11v-7.3h1.11v.81c.33-.32.65-.57.98-.75.32-.17.66-.26 1.01-.26.65 0 1.16.24 1.52.71.36.47.55 1.16.55 2.05v4.74z"/><path id="12" class="fil0" d="M86.52 31.6v-2.02c-.26.03-.59.06-.99.11-.4.04-.72.11-.97.19-.29.1-.53.25-.72.46-.19.2-.29.49-.29.86 0 .41.11.73.32.94.21.21.52.32.92.32.35 0 .66-.08.94-.25.28-.17.55-.37.79-.61zm0 1.01c-.09.08-.21.18-.36.32-.15.13-.29.24-.43.31-.2.12-.39.2-.57.26-.18.06-.44.1-.76.1-.28 0-.53-.06-.77-.17-.25-.12-.46-.28-.64-.48-.18-.2-.32-.45-.42-.74-.11-.3-.16-.61-.16-.93 0-.51.09-.94.28-1.29.2-.36.5-.64.91-.85.37-.19.81-.32 1.3-.39.51-.07 1.05-.12 1.62-.16v-.24c0-.29-.04-.52-.11-.7a.912.912 0 00-.33-.41c-.14-.11-.31-.17-.52-.21-.2-.03-.41-.04-.63-.04-.25 0-.55.04-.9.12-.34.09-.68.22-1.03.38h-.06v-1.24c.2-.07.49-.14.87-.22.38-.08.76-.12 1.13-.12.45 0 .83.04 1.14.12.31.08.59.22.84.43.24.2.42.46.53.78.12.31.18.7.18 1.16v5h-1.11v-.79z"/><path id="13" class="fil0" d="M92.66 27.43h-.06c-.08-.03-.17-.04-.26-.05-.09 0-.2-.01-.33-.01-.3 0-.59.07-.89.22-.29.14-.57.35-.83.64v5.17h-1.11v-7.3h1.11v1.09c.4-.4.75-.68 1.05-.84.3-.17.59-.25.87-.25.12 0 .2 0 .26.01s.12.02.19.03v1.29z"/><path id="14" class="fil0" d="M98.68 26.1l-3.53 9.99h-1.18l1.18-3.05-2.39-6.94h1.19l1.79 5.42 1.79-5.42z"/><path id="15" class="fil0" d="M100.19 33.4h-1.41v-1.86h1.41z"/><path id="16" class="fil0" d="M104.71 33.56c-.46 0-.87-.08-1.25-.24-.37-.15-.7-.38-.97-.7-.27-.31-.48-.71-.63-1.18-.14-.48-.22-1.04-.22-1.68 0-.64.08-1.2.23-1.66.16-.47.36-.86.62-1.18.26-.32.59-.56.97-.73.39-.18.8-.26 1.25-.26.36 0 .71.05 1.04.17.34.11.64.24.9.39v1.38h-.07c-.07-.08-.18-.16-.3-.26-.12-.09-.27-.19-.45-.29a2.75 2.75 0 00-.54-.22c-.21-.07-.41-.1-.6-.1-.58 0-1.04.24-1.38.72-.35.48-.53 1.16-.53 2.04 0 .85.17 1.53.51 2.01.33.47.8.72 1.4.72.36 0 .7-.09 1.03-.25.32-.16.61-.38.86-.64h.07v1.38c-.11.06-.25.13-.41.21-.17.08-.32.14-.45.18-.19.06-.36.1-.51.14-.15.03-.34.05-.57.05z"/><path id="17" class="fil0" d="M113.06 29.75c0 1.23-.27 2.18-.8 2.84-.53.67-1.24 1.01-2.13 1.01-.91 0-1.63-.35-2.15-1.04-.52-.69-.78-1.62-.78-2.81 0-1.22.26-2.16.8-2.84.54-.67 1.25-1.01 2.13-1.01.89 0 1.6.34 2.13 1.01.53.67.8 1.62.8 2.84zm-1.15 0c0-.94-.15-1.64-.46-2.09-.31-.46-.75-.69-1.32-.69-.57 0-1.01.23-1.33.69-.31.45-.46 1.15-.46 2.09 0 .91.15 1.6.46 2.07.32.47.76.71 1.33.71.57 0 1.01-.23 1.32-.7.31-.46.46-1.15.46-2.08z"/><path id="18" class="fil0" d="M121.65 33.4v-4.22c0-.34-.01-.65-.04-.93a2.18 2.18 0 00-.14-.68.793.793 0 00-.34-.38c-.14-.08-.34-.12-.58-.12-.23 0-.48.07-.74.23-.26.15-.53.38-.81.67.01.08.01.16.02.27 0 .1.01.22.01.36v4.8h-1.11v-4.22c0-.34-.01-.65-.04-.93a2.18 2.18 0 00-.14-.68.793.793 0 00-.34-.38c-.14-.08-.34-.12-.59-.12-.24 0-.49.08-.75.25-.26.16-.52.37-.76.63v5.45h-1.11v-7.3h1.11v.81c.29-.32.57-.57.86-.74.28-.18.6-.27.94-.27.38 0 .73.1 1.03.3.3.19.53.51.68.96.34-.41.66-.73.98-.94.32-.21.67-.32 1.04-.32.28 0 .54.05.77.15.23.1.43.25.6.47.18.22.32.5.41.83.1.33.15.75.15 1.25v4.8h-1.11z"/></g></g></svg>