<svg xmlns="http://www.w3.org/2000/svg" width="893" height="197" viewBox="0 0 1731.5 382.54" shape-rendering="geometricPrecision" text-rendering="geometricPrecision" image-rendering="optimizeQuality" fill-rule="evenodd" clip-rule="evenodd"><defs><linearGradient id="id0" gradientUnits="userSpaceOnUse" x1="219.65" y1="154.41" x2="484.69" y2="299.12"><stop offset="0" stop-color="#fdbb0d"/><stop offset="1" stop-color="#ef6a1d"/></linearGradient><style>.fil4,.fil5{fill:#f08519;fill-rule:nonzero}.fil4{fill:#039}</style></defs><g id="Layer_x0020_1"><g id="_1962666052464"><path d="M277.43 224.1c-.89.15-1.78.28-2.65.41-6.52.99-12.87 1.19-19.41 1.61-3.59.23-8.13.56-11.44 2.06-3.83 1.75-5.99 5.35-7.63 9.07-.62 1.41-1.66 4.6-2.18 7.7 2.73-1.75 5.49-3.66 6.67-4.41 10.92-6.9 23.36-11.45 34.66-2.33.56.45 1.1.92 1.61 1.41-.28-5.14-.25-10.39.37-15.52zM415.07 0c39.54 0 76.19 12.3 106.37 33.27-20.44-3.87-61.08-.48-69.16 4.31 69.16-4.31 146.02 22.62 191.53 70.74 29.48-.17 44.53 23.11 64.14 16.56l16.78-5.6-4.9 17.01-.09.34c-.29 2.91-1.43 4.33-2.96 6.61-2.88 4.3-6.88 7.43-11.76 9.15-11.09 3.89-21.04-.16-31.48-3.41-7.32-2.28-14.7-3.26-21.99-2.45-2.55 4.31-4.26 9.1-5.38 13.96-3.08 13.35-.36 10.05-10.36 20.58-7.58 7.99-9.03 12.95-9.21 23.79v.57L624.71 219l-6.52 1.27c-8.51 1.66-19.72 3.04-28.82.16 2.49 2.9 5.27 5.31 7.87 7-18.6 83.46-93.1 145.87-182.17 145.87-39.62 0-76.34-12.34-106.55-33.39.82 3.3 3.9 4.99 6.83 7.22l1.72.57 14.37 17.3-6.44 5.99c-14.56 13.55-30.97 12.16-49.1 10.55l-8.09-.72-.38-8.12c-.36-7.78-1.39-17.32-.9-25.04.43-6.75 1.96-14.33 2.88-21.11h-61.24c-11.27 0-20.49-8.75-20.49-19.44 0-10.69 9.21-19.45 20.49-19.45H261c-2.45-8.28-6.43-14.19-8.13-21.1-.93.62-1.83 1.23-2.66 1.8-9.98 6.8-19.96 13.41-32.63 10.16l-1.32-.34-1.18-.71c-8.12-4.91-11.09-16.57-11.17-28.69h-64.33c-11.26 0-20.5-8.74-20.5-19.44 0-10.69 9.23-19.44 20.5-19.44h67.59c8.73-2.21 15.24-9.83 15.24-18.79 0-10.71-9.23-19.44-20.49-19.44h-46.25c-11.27 0-20.5-8.76-20.5-19.45s9.22-19.44 20.5-19.44h69.32l.52.01h111.54c11.27 0 20.49-8.76 20.49-19.45 0-10.7-9.23-19.44-20.49-19.44h-92.5c-11.26 0-20.48-8.75-20.48-19.45 0-10.69 9.22-19.44 20.48-19.44h38.21C316.56 21.03 363.36 0 415.07 0zM86.99 132.78H20.48C9.23 132.78 0 141.53 0 152.22c0 10.69 9.22 19.45 20.48 19.45h66.51c11.27 0 20.49-8.76 20.49-19.45s-9.25-19.44-20.49-19.44zm93.83-77.77h-30.73c-11.26 0-20.49 8.75-20.49 19.44 0 10.7 9.22 19.45 20.49 19.45h30.73c11.27 0 20.48-8.75 20.48-19.45 0-10.69-9.24-19.44-20.48-19.44z" fill="url(#id0)"/><path d="M471.83 47.34l35.78 38.32 64.31-.19c18.85 29.15 29.8 63.89 29.8 101.18 0 2.69-.07 5.36-.18 8.02-3.5-6.43-6.81-11.35-6.81-11.35s-4.62-.1-8.35 4.63c-8.82 11.23-4.44 23.5 2.5 31.89-1.26-.4-2.46-.86-3.59-1.39l-6.24 1.1c-8.48 1.49-17.18 9.57-23.49 15.89-4.19 4.2-6.24 9.73-10.67 13.9-3.89 3.66-8.53 5.45-13.8 5.95-7.07.68-8.56-1.44-13.69-1.97-4.99-.53-19.33 5.58-25.11 6.86l-3.33.73c-10.33 9.46-25.92 14.02-39.07 16.83-20.78 4.42-33.63 3.44-49.1 1.41-9.74 14.64-27.51 5.04-40.88 2.1-26.98 3.5-66.3 24.05-52.68 71.32 0 3.24-11.69-4.8-8.21-15.43.43-12.59 2.72-44.69 42.75-62.51l-24.79-2.93s-18.55 29.48-26.45 54.85H278.8c2.23-16.96 1.84-22.01-.48-38.89h-.09c11.27 0 20.49-8.74 20.49-19.43 0-6-2.91-11.39-7.45-14.97l-.13-2.66c-.11-1.87-.25-3.74-.44-5.62-.86-8.45-1.21-18.29 1.29-26.52 1.39-4.59 3.9-8.22 5.35-12.55.23-.7.44-1.41.59-2.12l2.79-12.9-9.31 9.35c-9.18 9.23-3.19 8.92-18.6 11.25-20.48 3.09-38.41-2.67-48.58 20.45-2.21 5.03-3.71 11.31-3.55 16.84h-7.38c.16-10.5 2.64-21.74 4.62-26.16 14.39-32.08 40.71-13.46 92.97-47.36 13.06-8.47 30.18-20.26 48.16-21.88l-11.74 9.68-.83.67-2.99 3.03c42.37-22.53 89.08-64.51 114.43-105.93 4.01-6.51 5.02-12.93 13.91-13.49zM267.56 248.78h-14.82c4.71-2.42 10.02-3.88 14.45-.31l.37.31z" fill="#d65e13"/><path d="M619.13 166.89c2.55-2.02 6-3.44 3.56-8.56-1.08-2.25-3.49-3.75-5.64-5.49-1.97 5.26-.08 9.67 2.08 14.05zm-71.64 33.9c-19.06-8.11-50.73-10.03-75.47-7.6-4.09-16.58-7.55-19.37-8.7-38.79-2.01 11.52.3 32.72 8.48 43.22 20.15 1.47 41.34-3.86 59.84 3.86l-16.56 15.93-8-2.17c2.94 3.86 2.47 2.93 7.13 5.6 12.91-7.45 20.89-20.31 33.28-20.05zM311.62 355.7l7.04 8.48c-12.53 11.66-28.46 9.29-41.93 8.09-1.43-30.51-1.71-17.51 1.93-44.69 2.58-19.27 1.95-23.43-.97-44.49-1.24-8.98 12.48-5.13 9.16-37.71-3.05-29.89 5.53-34.18 7.31-42.41-7.93 7.95-3.34 9.71-20.77 12.34-21.66 3.27-36.52-2.48-45.61 18.19-2.75 6.24-5.5 17.93-.33 24.2 10.3.66 28.09-23.6 42.16-12.25 12.5 10.1 6.89 33.09.85 41.5-3.83-14.72-12.18-21.01-7.73-34.45-15.49 1.53-27.09 21.04-42.83 17.01-11.1-6.71-5.68-38.64-1.98-46.89 14.38-32.08 40.7-13.45 92.97-47.36 13.06-8.47 30.18-20.26 48.16-21.88l-11.74 9.67c-.25.21-.58.46-.82.68l-3 3.03c42.37-22.53 89.08-64.51 114.44-105.92 4.42-7.21 5.19-14.3 17.02-13.47 45.5 3.16 90.76 17.85 126.84 40.66 9.4 5.94 27.32 17.64 35.13 26.55l-8.22 5.43c39.49-11.74 52.61 23.57 82.19 13.7-.96 3.33.42.97-1.84 4.35-8.19 12.23-26.68 3.92-32.73 2.04-12.83-4-26.96-4.81-41.03 1.17l8.73-.29c-2.95 4.79-5.34 10.56-6.92 17.42-2.95 12.82.65 7.12-8.04 16.26-9.52 10.04-11.56 17.35-11.76 30.05l-.9 6.43c-21.94 4.28-40.15 1.45-30.02-23.18-1.61-2.9-4.04-3.6-9.5-18.27-4.08-10.99-4.03-16.01-4.25-26.72l-1.62 6.47c-.24 2.74.01 5.54.39 8.52.45 3.58 1.07 6.32 1.85 9.8.21.92.8 3.29.91 4.07l.18 4.95c-5.03 2.38-34.27-12.78-39.83-16.4.1-5.36 6.8-25.21-2.58-38.14 4.24 21.96 3.77 21.69-1.59 39.06 11.82 10.23 38.36 16.68 41.18 25.58 2.09 6.56 4.01 16.41 5.92 23.55-43.13 7.62-31.29 28.61-49.29 30.33-5.75.55-8.13-1.59-11.81-1.98-8.11-.86-19.68 5.18-28.08 7.03l7.5-20.77c-11.45 9.32-.59 27.83-49.85 38.32-30.17 6.42-43.54 1.09-68.37-1.59 3.6 1.43 11.52 3.68 13.87 6.34-5.68 9.28-17.05 1.97-27.72-.39 2.15-7.65 7.23-10.07 12.09-28.54 2.97-11.3 2.5-24.44-2.1-37.03 1.76 18.34 1.75 35.78-5.08 47.81-10.26 18.09-16.72 18.44-36.43 30.11-15.04 8.93-23.8 22.11-28.73 34.82-2.64 6.82-4.43 15.2-4.43 23.25 0 6.94 2.14 9.8 10.79 16.47 3.92 3.01-.26.4 1.82 1.09z" fill="#fefefe"/><path d="M451.11 55.03c-42.4 69.24-64.17 67.95-96.67 98.98l4.31-13c-11.39 5.58-40.53 19.27-54.68 28.44-52.27 33.91-78.58 15.29-92.97 47.36-3.7 8.25-9.11 40.19 1.98 46.89.85.22 1.68.37 2.51.45-1.77-4.07-2.38-9.61-2.29-15.37.16-10.51 2.63-21.74 4.62-26.16 14.38-32.08 40.7-13.45 92.97-47.36 18.31-11.87 18.46-11.43 39.74-14.94l-3.32 2.73-.82.68-3 3.03c42.37-22.53 89.08-64.51 114.44-105.92 3.99-6.52 5.01-12.93 13.9-13.5.95-.06 1.98-.05 3.12.03 45.5 3.16 90.76 17.85 126.84 40.66 6.31 3.98 16.45 10.56 24.8 17.15-8.8-8.26-23.44-17.79-31.61-22.96-36.09-22.8-81.35-37.5-126.85-40.66-11.83-.82-12.6 6.26-17.02 13.47z" fill="#fbae10"/><path class="fil4" d="M751.77 214.27V75.45h95.39v23.46h-67.28v32.96h58.17v23.46h-58.17v58.94z"/><path id="1" class="fil4" d="M889.78 144.67l-24.04-4.27c2.71-9.82 7.4-17.09 14.02-21.81 6.63-4.72 16.48-7.08 29.54-7.08 11.86 0 20.71 1.39 26.53 4.2 5.78 2.81 9.89 6.37 12.25 10.7 2.35 4.33 3.55 12.25 3.55 23.81l-.39 31.02c0 8.83.42 15.35 1.26 19.56.84 4.2 2.43 8.69 4.75 13.47h-26.37c-.67-1.74-1.55-4.33-2.55-7.76-.42-1.58-.74-2.61-.94-3.1-4.52 4.46-9.37 7.79-14.54 10.02-5.17 2.23-10.66 3.36-16.51 3.36-10.31 0-18.45-2.81-24.4-8.43-5.94-5.59-8.92-12.7-8.92-21.3 0-5.65 1.36-10.73 4.08-15.19 2.71-4.42 6.49-7.85 11.4-10.21 4.88-2.36 11.93-4.42 21.14-6.2 12.41-2.33 21.03-4.53 25.82-6.53v-2.68c0-5.17-1.27-8.85-3.78-11.08-2.56-2.2-7.34-3.3-14.35-3.3-4.75 0-8.44.94-11.09 2.84-2.68 1.88-4.81 5.21-6.46 9.96zm35.68 21.52c-3.4 1.13-8.79 2.49-16.19 4.07-7.37 1.58-12.22 3.13-14.48 4.62-3.46 2.49-5.2 5.59-5.2 9.37 0 3.75 1.39 6.95 4.17 9.66 2.77 2.72 6.3 4.07 10.59 4.07 4.79 0 9.37-1.58 13.74-4.71 3.2-2.43 5.33-5.34 6.33-8.83.68-2.26 1.04-6.59 1.04-12.95v-5.3z"/><path id="2" class="fil4" d="M968.34 185.96l26.75-4.07c1.13 5.14 3.43 9.05 6.92 11.7 3.46 2.68 8.34 4.01 14.57 4.01 6.88 0 12.06-1.26 15.55-3.78 2.32-1.78 3.49-4.17 3.49-7.15 0-2-.65-3.68-1.91-5-1.33-1.27-4.3-2.46-8.89-3.53-21.49-4.75-35.09-9.08-40.84-12.99-7.98-5.46-11.96-13.02-11.96-22.68 0-8.76 3.46-16.09 10.34-22.04 6.88-5.94 17.55-8.92 31.99-8.92 13.77 0 24.01 2.26 30.7 6.76 6.69 4.52 11.31 11.18 13.83 20l-25.01 4.65c-1.07-3.94-3.13-6.98-6.14-9.08-3.01-2.1-7.3-3.13-12.89-3.13-7.05 0-12.09.97-15.16 2.94-2.03 1.39-3.04 3.2-3.04 5.39 0 1.91.88 3.52 2.65 4.85 2.43 1.78 10.73 4.27 24.95 7.5 14.22 3.23 24.14 7.17 29.76 11.86 5.59 4.72 8.37 11.34 8.37 19.81 0 9.2-3.84 17.16-11.57 23.78-7.69 6.62-19.1 9.95-34.22 9.95-13.7 0-24.56-2.78-32.57-8.3-7.98-5.53-13.22-13.03-15.67-22.53z"/><path id="3" class="fil4" d="M1131.62 113.64v21.14h-18.23v40.75c0 8.27.17 13.08.52 14.44.36 1.36 1.13 2.49 2.39 3.39 1.23.88 2.72 1.33 4.5 1.33 2.48 0 6.04-.84 10.72-2.55l2.23 20.68c-6.17 2.65-13.15 3.97-20.97 3.97-4.78 0-9.08-.81-12.92-2.42-3.85-1.62-6.66-3.72-8.44-6.27-1.81-2.59-3.04-6.04-3.75-10.44-.55-3.1-.84-9.37-.84-18.84v-44.04h-12.21v-21.14h12.21V93.67l26.56-15.7v35.67h18.23z"/><path id="4" class="fil5" d="M1181.64 214.27V98.91h-41.1V75.45h110.13v23.46h-40.91v115.36z"/><path id="5" class="fil5" d="M1283.37 214.27h-26.56V113.64h24.62v14.29c4.23-6.76 8.05-11.18 11.44-13.28 3.39-2.1 7.24-3.14 11.54-3.14 6.07 0 11.92 1.68 17.54 5.01l-8.24 23.2c-4.49-2.91-8.66-4.36-12.5-4.36-3.75 0-6.92 1.03-9.5 3.07-2.59 2.07-4.63 5.75-6.11 11.11-1.49 5.37-2.23 16.61-2.23 33.71v31.02z"/><path id="6" class="fil5" d="M1353.2 144.67l-24.04-4.27c2.71-9.82 7.4-17.09 14.02-21.81 6.63-4.72 16.48-7.08 29.54-7.08 11.86 0 20.71 1.39 26.53 4.2 5.78 2.81 9.89 6.37 12.25 10.7 2.36 4.33 3.55 12.25 3.55 23.81l-.39 31.02c0 8.83.42 15.35 1.26 19.56.84 4.2 2.43 8.69 4.75 13.47h-26.37c-.67-1.74-1.55-4.33-2.55-7.76-.42-1.58-.74-2.61-.94-3.1-4.52 4.46-9.37 7.79-14.54 10.02-5.17 2.23-10.66 3.36-16.51 3.36-10.31 0-18.45-2.81-24.4-8.43-5.94-5.59-8.92-12.7-8.92-21.3 0-5.65 1.36-10.73 4.08-15.19 2.71-4.42 6.49-7.85 11.4-10.21 4.88-2.36 11.93-4.42 21.14-6.2 12.41-2.33 21.03-4.53 25.82-6.53v-2.68c0-5.17-1.27-8.85-3.78-11.08-2.56-2.2-7.34-3.3-14.35-3.3-4.75 0-8.44.94-11.09 2.84-2.68 1.88-4.81 5.21-6.46 9.96zm35.68 21.52c-3.4 1.13-8.79 2.49-16.19 4.07-7.37 1.58-12.22 3.13-14.48 4.62-3.46 2.49-5.2 5.59-5.2 9.37 0 3.75 1.39 6.95 4.17 9.66 2.77 2.72 6.3 4.07 10.59 4.07 4.79 0 9.37-1.58 13.74-4.71 3.2-2.43 5.33-5.34 6.33-8.83.68-2.26 1.04-6.59 1.04-12.95v-5.3z"/><path id="7" class="fil5" d="M1533.55 214.27h-24.63V199.5c-4.1 5.76-8.98 10.05-14.57 12.96-5.59 2.88-11.25 4.33-16.93 4.33-11.6 0-21.52-4.65-29.8-13.99-8.24-9.34-12.37-22.33-12.37-39.04 0-17.06 4-30.05 12.05-38.94 8.05-8.88 18.19-13.31 30.47-13.31 11.25 0 21.01 4.69 29.21 14.03V75.45h26.57v138.82zm-70.97-52.25c0 10.76 1.49 18.55 4.43 23.36 4.3 6.98 10.28 10.47 17.97 10.47 6.11 0 11.31-2.61 15.57-7.85 4.3-5.23 6.43-13.02 6.43-23.43 0-11.6-2.06-19.94-6.23-25.04-4.17-5.11-9.47-7.66-15.96-7.66-6.31 0-11.57 2.52-15.84 7.56-4.23 5.04-6.37 12.57-6.37 22.59z"/><path id="8" class="fil5" d="M1617.85 182.47l26.57 4.46c-3.4 9.73-8.79 17.13-16.13 22.23-7.37 5.08-16.58 7.63-27.6 7.63-17.48 0-30.44-5.72-38.8-17.16-6.63-9.17-9.96-20.74-9.96-34.74 0-16.67 4.36-29.76 13.06-39.19 8.69-9.47 19.71-14.19 33.02-14.19 14.93 0 26.73 4.94 35.39 14.83 8.62 9.89 12.76 25.05 12.37 45.47h-66.5c.19 7.88 2.33 14.02 6.43 18.42 4.07 4.39 9.18 6.59 15.25 6.59 4.17 0 7.66-1.13 10.47-3.39 2.85-2.26 4.98-5.92 6.43-10.96zm1.55-26.95c-.19-7.72-2.16-13.6-5.94-17.61-3.78-4.04-8.37-6.04-13.8-6.04-5.78 0-10.57 2.13-14.35 6.36-3.78 4.24-5.62 10.02-5.55 17.29h39.64z"/><path id="9" class="fil5" d="M1692.92 214.27h-26.56V113.64h24.62v14.29c4.23-6.76 8.05-11.18 11.44-13.28 3.39-2.1 7.24-3.14 11.54-3.14 6.07 0 11.92 1.68 17.54 5.01l-8.24 23.2c-4.49-2.91-8.66-4.36-12.5-4.36-3.75 0-6.92 1.03-9.5 3.07-2.59 2.07-4.62 5.75-6.11 11.11-1.49 5.37-2.23 16.61-2.23 33.71v31.02z"/><path class="fil4" d="M797.19 267.6c0 3.06-.49 5.94-1.47 8.67-.96 2.72-2.31 5.04-4.02 6.96-2.18 2.38-4.73 4.2-7.67 5.43-2.93 1.22-6.63 1.83-11.13 1.83h-7.1v26.2h-8.43v-70.28h15.83c3.75 0 6.92.34 9.54 1.03 2.62.7 4.94 1.82 6.96 3.35 2.33 1.81 4.17 4.08 5.5 6.83 1.32 2.76 1.99 6.08 1.99 9.98zm-8.78.22c0-2.4-.38-4.49-1.12-6.26-.75-1.79-1.88-3.24-3.39-4.35-1.33-.99-2.87-1.66-4.62-2.07-1.76-.4-3.94-.61-6.57-.61h-6.91v27.84h5.7c3.37 0 6.1-.3 8.18-.92 2.08-.59 3.8-1.69 5.19-3.23 1.23-1.42 2.13-2.94 2.7-4.6.56-1.66.84-3.59.84-5.8z"/><path id="1" class="fil4" d="M841.65 290.36c0 8.88-1.93 15.71-5.77 20.55-3.86 4.82-8.97 7.23-15.36 7.23-6.6 0-11.78-2.49-15.55-7.47-3.78-4.98-5.67-11.75-5.67-20.31 0-8.79 1.95-15.62 5.84-20.49 3.89-4.88 9.02-7.31 15.38-7.31 6.39 0 11.5 2.43 15.36 7.28 3.84 4.86 5.77 11.69 5.77 20.52zm-8.26 0c0-6.78-1.12-11.82-3.35-15.13-2.23-3.3-5.41-4.94-9.52-4.94-4.15 0-7.35 1.64-9.59 4.94-2.25 3.31-3.36 8.35-3.36 15.13 0 6.58 1.11 11.56 3.36 14.96 2.24 3.4 5.44 5.09 9.59 5.09 4.09 0 7.26-1.66 9.51-5 2.24-3.33 3.36-8.34 3.36-15.05z"/><path id="2" class="fil4" d="M907.29 264l-12 52.69h-7.37l-11.58-40.62-11.49 40.62h-7.34L845.38 264h8.27l8.4 40.8 11.23-40.8h6.58l11.53 40.8 7.92-40.8z"/><path id="3" class="fil4" d="M934.95 317.85c-7.56 0-13.44-2.37-17.63-7.09-4.19-4.72-6.27-11.44-6.27-20.14 0-8.57 2.02-15.39 6.08-20.46 4.04-5.07 9.35-7.6 15.9-7.6 2.95 0 5.56.46 7.82 1.41 2.28.94 4.26 2.42 5.96 4.43 1.71 2.02 3.01 4.47 3.91 7.38.91 2.9 1.36 6.46 1.36 10.67v4.82h-32.95c0 6.1 1.39 10.78 4.18 14 2.78 3.24 6.63 4.85 11.54 4.85 1.76 0 3.5-.23 5.18-.66 1.69-.44 3.21-1.02 4.57-1.71 1.45-.73 2.69-1.42 3.67-2.1 1-.67 1.83-1.32 2.48-1.91h.46v9.68c-.94.41-2.1.92-3.49 1.53-1.39.61-2.63 1.1-3.74 1.44-1.56.46-2.97.83-4.23 1.09-1.26.24-2.87.37-4.8.37zm9.4-33.35c-.06-2.38-.32-4.45-.77-6.17-.45-1.73-1.12-3.19-1.96-4.38a9.29 9.29 0 00-3.61-3.02c-1.46-.69-3.27-1.03-5.45-1.03-2.13 0-3.94.36-5.43 1.07-1.49.7-2.86 1.72-4.07 3.07-1.21 1.39-2.1 2.92-2.74 4.6-.62 1.67-1.02 3.64-1.19 5.86h25.22z"/><path id="4" class="fil4" d="M985.24 273.58h-.42a8.89 8.89 0 00-1.89-.33c-.66-.04-1.46-.06-2.4-.06-2.14 0-4.28.52-6.41 1.55-2.11 1.04-4.11 2.57-6.01 4.62v37.33h-8V264h8v7.84c2.91-2.87 5.45-4.89 7.61-6.06 2.16-1.18 4.26-1.78 6.3-1.78.81 0 1.44.02 1.84.07.41.05.87.13 1.38.23v9.28z"/><path id="5" class="fil4" d="M1011.63 317.85c-7.57 0-13.45-2.37-17.64-7.09-4.19-4.72-6.27-11.44-6.27-20.14 0-8.57 2.03-15.39 6.08-20.46 4.05-5.07 9.35-7.6 15.9-7.6 2.96 0 5.56.46 7.83 1.41 2.27.94 4.26 2.42 5.95 4.43 1.71 2.02 3.01 4.47 3.91 7.38.92 2.9 1.37 6.46 1.37 10.67v4.82H995.8c0 6.1 1.4 10.78 4.18 14 2.78 3.24 6.63 4.85 11.55 4.85 1.75 0 3.49-.23 5.17-.66 1.69-.44 3.22-1.02 4.58-1.71 1.45-.73 2.68-1.42 3.67-2.1.99-.67 1.82-1.32 2.47-1.91h.47v9.68c-.94.41-2.1.92-3.5 1.53-1.39.61-2.63 1.1-3.73 1.44-1.57.46-2.98.83-4.24 1.09-1.26.24-2.86.37-4.79.37zm9.39-33.35c-.06-2.38-.32-4.45-.77-6.17-.45-1.73-1.12-3.19-1.96-4.38a9.29 9.29 0 00-3.61-3.02c-1.46-.69-3.27-1.03-5.44-1.03-2.13 0-3.94.36-5.44 1.07-1.49.7-2.85 1.72-4.07 3.07-1.2 1.39-2.1 2.92-2.74 4.6-.62 1.67-1.01 3.64-1.19 5.86h25.22z"/><path id="6" class="fil4" d="M1073.39 316.69h-8v-5.39a94.338 94.338 0 01-3.23 2.88c-.91.76-1.99 1.45-3.2 2.08-1.13.59-2.32 1.06-3.54 1.38-1.21.34-2.64.5-4.26.5-2.58 0-4.97-.59-7.17-1.79-2.21-1.19-4.07-2.94-5.61-5.23-1.57-2.32-2.77-5.19-3.62-8.61-.86-3.41-1.28-7.33-1.28-11.76 0-4.62.54-8.62 1.62-12 1.08-3.38 2.57-6.32 4.47-8.85 1.74-2.29 3.82-4.09 6.29-5.4 2.46-1.3 5.02-1.94 7.73-1.94 2.38 0 4.45.29 6.22.87 1.76.57 3.62 1.48 5.58 2.72v-22.93h8v73.47zm-8-12.86v-30.32c-1.99-1.03-3.77-1.75-5.35-2.14-1.58-.4-3.29-.6-5.13-.6-4.13 0-7.34 1.71-9.68 5.11-2.33 3.4-3.49 8.31-3.49 14.74 0 6.19.9 10.91 2.68 14.2 1.8 3.27 4.67 4.91 8.61 4.91 2.1 0 4.22-.53 6.35-1.59 2.13-1.07 4.14-2.5 6.01-4.31z"/><path id="7" class="fil4" d="M1143.66 290.14c0-6.28-.87-11.05-2.6-14.29-1.74-3.26-4.52-4.88-8.36-4.88-2.19 0-4.39.56-6.62 1.7a25.684 25.684 0 00-6.07 4.32v30.15c2.01 1.09 3.81 1.85 5.37 2.3 1.56.45 3.28.68 5.15.68 4.1 0 7.3-1.6 9.63-4.8 2.34-3.21 3.5-8.27 3.5-15.18zm8.26-.66c0 8.6-1.89 15.55-5.67 20.78-3.78 5.26-8.5 7.88-14.19 7.88-2.57 0-4.79-.35-6.62-1.06-1.84-.71-3.63-1.66-5.43-2.85l-.51 2.46h-7.49v-73.47h8v26.33c2.01-2.02 4.2-3.69 6.56-5.01 2.35-1.32 5.03-1.98 8-1.98 5.38 0 9.61 2.38 12.71 7.13 3.09 4.77 4.64 11.36 4.64 19.79z"/><path id="8" class="fil4" d="M1197.19 264l-25.51 72.12h-8.55l8.51-21.97-17.23-50.15h8.56l12.99 39.11 12.91-39.11z"/><path id="9" class="fil4" d="M1273.92 295.1c0 3.5-.59 6.59-1.78 9.27-1.19 2.67-2.78 4.88-4.8 6.6-2.37 2.08-4.93 3.56-7.64 4.42-2.72.87-6.23 1.3-10.52 1.3h-18.12v-70.28h16.76c4.51 0 7.89.16 10.13.5 2.25.32 4.41 1.1 6.48 2.32 2.26 1.35 3.91 3.13 4.97 5.32 1.04 2.17 1.56 4.75 1.56 7.7 0 3.3-.78 6.25-2.34 8.86-1.58 2.61-3.76 4.66-6.52 6.14v.39c3.75 1.12 6.66 3.2 8.73 6.2 2.06 3.01 3.09 6.77 3.09 11.26zm-11.74-31.45c0-1.67-.26-3.14-.77-4.36-.5-1.25-1.32-2.21-2.44-2.94-1.35-.84-2.87-1.35-4.54-1.54-1.67-.18-3.96-.28-6.9-.28h-8.04v20.4h9.52c2.64 0 4.57-.15 5.81-.45 1.23-.29 2.52-.9 3.84-1.84a7.28 7.28 0 002.72-3.56c.54-1.47.8-3.27.8-5.43zm2.96 31.77c0-2.62-.33-4.78-1.01-6.49-.69-1.71-2.05-3.16-4.11-4.33-1.33-.79-2.78-1.29-4.34-1.52-1.57-.21-3.79-.32-6.67-.32h-9.52v25.81h6.81c3.67 0 6.57-.19 8.68-.56 2.12-.37 3.99-1.18 5.59-2.39 1.58-1.22 2.73-2.61 3.47-4.15.74-1.55 1.1-3.56 1.1-6.05z"/><path id="10" class="fil4" d="M1290.28 316.69h-8V264h8v52.69zm.61-61.58h-9.13v-9.18h9.13v9.18z"/><path id="11" class="fil4" d="M1339.19 316.69h-8v-30.01c0-2.42-.1-4.68-.32-6.77-.22-2.1-.61-3.77-1.2-5.03-.66-1.32-1.57-2.3-2.73-2.95-1.16-.64-2.74-.96-4.75-.96-1.97 0-4.01.59-6.13 1.77-2.1 1.17-4.16 2.71-6.17 4.59v39.36h-8V264h8v5.87c2.37-2.37 4.72-4.17 7.04-5.43 2.33-1.26 4.78-1.88 7.35-1.88 4.68 0 8.33 1.7 10.95 5.12 2.64 3.4 3.96 8.34 3.96 14.82v34.19z"/><path id="12" class="fil4" d="M1376.81 303.69v-14.55c-1.89.19-4.28.45-7.16.77-2.9.33-5.24.79-7 1.39-2.12.72-3.87 1.82-5.25 3.3-1.38 1.49-2.07 3.56-2.07 6.22 0 3 .77 5.27 2.29 6.8 1.52 1.53 3.74 2.31 6.66 2.31 2.53 0 4.79-.6 6.82-1.81 2.03-1.19 3.94-2.67 5.71-4.43zm0 7.36c-.66.55-1.53 1.29-2.61 2.26-1.09.95-2.13 1.72-3.15 2.29-1.42.82-2.78 1.45-4.1 1.88-1.3.44-3.14.66-5.52.66-1.96 0-3.8-.4-5.55-1.22s-3.29-1.97-4.62-3.45c-1.27-1.45-2.28-3.24-3.04-5.36-.77-2.12-1.15-4.36-1.15-6.72 0-3.66.69-6.75 2.07-9.33 1.39-2.57 3.58-4.59 6.57-6.11 2.65-1.35 5.79-2.29 9.4-2.8 3.62-.52 7.52-.91 11.7-1.16v-1.73c0-2.09-.29-3.78-.86-5.07-.57-1.29-1.35-2.29-2.36-2.98-1.03-.74-2.26-1.23-3.74-1.47-1.46-.24-2.99-.35-4.54-.35-1.84 0-4 .3-6.49.93-2.48.63-4.97 1.55-7.46 2.74h-.46v-9.01c1.47-.46 3.57-.98 6.33-1.54 2.75-.57 5.46-.86 8.16-.86 3.26 0 6 .29 8.24.86 2.23.56 4.25 1.58 6.03 3.06 1.72 1.45 3.02 3.33 3.87 5.62.86 2.31 1.27 5.11 1.27 8.41v36.09h-7.99v-5.64z"/><path id="13" class="fil4" d="M1421.13 273.58h-.42c-.59-.18-1.23-.28-1.88-.33-.67-.04-1.47-.06-2.41-.06-2.14 0-4.27.52-6.4 1.55-2.12 1.04-4.12 2.57-6.02 4.62v37.33h-7.99V264h7.99v7.84c2.92-2.87 5.45-4.89 7.61-6.06 2.16-1.18 4.26-1.78 6.31-1.78.81 0 1.43.02 1.84.07.4.05.86.13 1.37.23v9.28z"/><path id="14" class="fil4" d="M1464.64 264l-25.51 72.12h-8.55l8.51-21.97-17.23-50.15h8.56l12.99 39.11 12.91-39.11z"/><path id="15" class="fil4" d="M1475.52 316.69h-10.17v-13.44h10.17z"/><path id="16" class="fil4" d="M1508.15 317.85c-3.26 0-6.24-.56-8.97-1.67a18.398 18.398 0 01-7.01-5.08c-1.96-2.26-3.46-5.11-4.55-8.55-1.07-3.45-1.61-7.5-1.61-12.15 0-4.63.56-8.62 1.68-11.99 1.12-3.37 2.61-6.19 4.48-8.49 1.87-2.29 4.2-4.06 7-5.3 2.78-1.24 5.78-1.87 8.98-1.87 2.61 0 5.13.4 7.55 1.22s4.58 1.78 6.48 2.84v9.96h-.46c-.57-.53-1.31-1.15-2.21-1.84-.88-.68-1.97-1.39-3.24-2.11-1.1-.61-2.41-1.16-3.92-1.63-1.5-.47-2.95-.71-4.34-.71-4.13 0-7.46 1.74-9.97 5.21-2.51 3.46-3.77 8.36-3.77 14.71 0 6.2 1.22 11.05 3.64 14.52 2.42 3.46 5.79 5.2 10.1 5.2 2.61 0 5.1-.6 7.45-1.79 2.36-1.18 4.43-2.72 6.26-4.59h.46v9.95c-.8.42-1.78.91-2.97 1.49a21.34 21.34 0 01-3.23 1.3c-1.37.44-2.58.78-3.66 1.02s-2.47.35-4.17.35z"/><path id="17" class="fil4" d="M1568.48 290.36c0 8.88-1.93 15.71-5.77 20.55-3.85 4.82-8.97 7.23-15.36 7.23-6.59 0-11.78-2.49-15.55-7.47-3.78-4.98-5.66-11.75-5.66-20.31 0-8.79 1.94-15.62 5.84-20.49 3.88-4.88 9.01-7.31 15.37-7.31 6.39 0 11.51 2.43 15.36 7.28 3.84 4.86 5.77 11.69 5.77 20.52zm-8.26 0c0-6.78-1.12-11.82-3.35-15.13-2.23-3.3-5.4-4.94-9.52-4.94-4.14 0-7.34 1.64-9.59 4.94-2.25 3.31-3.36 8.35-3.36 15.13 0 6.58 1.11 11.56 3.36 14.96 2.25 3.4 5.45 5.09 9.59 5.09 4.09 0 7.26-1.66 9.51-5 2.24-3.33 3.36-8.34 3.36-15.05z"/><path id="18" class="fil4" d="M1630.56 316.69v-30.48c0-2.42-.09-4.66-.26-6.72-.16-2.06-.52-3.67-1.06-4.85-.57-1.26-1.38-2.18-2.42-2.77-1.04-.6-2.46-.9-4.25-.9-1.65 0-3.4.56-5.28 1.69-1.89 1.11-3.84 2.74-5.86 4.86.03.54.07 1.16.12 1.91.04.74.05 1.61.05 2.62v34.64h-7.99v-30.48c0-2.42-.09-4.66-.26-6.72-.17-2.06-.53-3.67-1.06-4.85-.57-1.26-1.38-2.18-2.42-2.77-1.05-.6-2.47-.9-4.25-.9-1.74 0-3.55.59-5.45 1.8-1.9 1.21-3.73 2.74-5.52 4.61v39.31h-8V264h8v5.87c2.1-2.32 4.17-4.12 6.23-5.4 2.06-1.27 4.32-1.91 6.78-1.91 2.8 0 5.3.71 7.47 2.12 2.16 1.42 3.81 3.74 4.94 6.98 2.42-2.98 4.77-5.25 7.06-6.79 2.3-1.54 4.79-2.31 7.49-2.31 2.04 0 3.9.35 5.56 1.06 1.67.71 3.13 1.84 4.38 3.41 1.27 1.62 2.26 3.6 2.95 6 .7 2.38 1.05 5.38 1.05 9.01v34.65h-8z"/></g></g></svg>