<svg xmlns="http://www.w3.org/2000/svg" width="894" height="197" viewBox="0 0 266.67 58.83" shape-rendering="geometricPrecision" text-rendering="geometricPrecision" image-rendering="optimizeQuality" fill-rule="evenodd" clip-rule="evenodd"><defs><linearGradient id="id0" gradientUnits="userSpaceOnUse" x1="33.78" y1="23.75" x2="74.54" y2="46"><stop offset="0" stop-color="#fdbb0d"/><stop offset="1" stop-color="#ef6a1d"/></linearGradient><style>.fil4,.fil5{fill:#f08519;fill-rule:nonzero}.fil4{fill:#fff}</style></defs><g id="Layer_x0020_1"><g id="_1962666004624"><path d="M42.67 34.47l-.41.06c-1 .15-1.98.18-2.99.25-.55.03-1.25.08-1.75.31-.59.27-.93.83-1.18 1.4-.09.22-.25.71-.33 1.18.42-.27.84-.56 1.02-.68 1.68-1.06 3.6-1.76 5.33-.35.09.07.17.14.25.21-.04-.79-.04-1.6.06-2.38zM63.84 0c6.08 0 11.71 1.89 16.36 5.12-3.15-.6-9.4-.08-10.64.66 10.64-.66 22.46 3.48 29.46 10.88 4.53-.03 6.84 3.55 9.86 2.55l2.58-.86-.75 2.61c-.01.02-.01.04-.02.05-.04.45-.22.67-.45 1.02-.44.66-1.06 1.14-1.81 1.41-1.7.6-3.24-.03-4.84-.53-1.13-.35-2.26-.5-3.38-.37-.39.66-.66 1.4-.83 2.14-.47 2.06-.06 1.55-1.59 3.17-1.17 1.23-1.39 1.99-1.42 3.66v.08l-.29 2.09-1 .2c-1.31.25-3.04.46-4.44.02.39.45.81.82 1.21 1.08-2.86 12.83-14.31 22.43-28.01 22.43-6.1 0-11.74-1.9-16.39-5.13.13.5.6.76 1.05 1.11l.26.08 2.21 2.67-.99.92c-2.24 2.08-4.76 1.87-7.55 1.62l-1.24-.11-.06-1.25c-.06-1.2-.21-2.66-.14-3.85.07-1.04.3-2.21.44-3.25h-9.41c-1.74 0-3.16-1.34-3.16-2.99 0-1.64 1.42-2.99 3.16-2.99h8.12c-.38-1.27-.99-2.18-1.25-3.24-.14.09-.28.19-.41.27-1.53 1.05-3.07 2.07-5.02 1.57l-.2-.06-.18-.11c-1.25-.75-1.71-2.54-1.72-4.41h-9.89c-1.74 0-3.16-1.34-3.16-2.99 0-1.64 1.42-2.99 3.16-2.99h10.39c1.35-.34 2.35-1.51 2.35-2.89 0-1.64-1.42-2.99-3.16-2.99h-7.11c-1.73 0-3.15-1.34-3.15-2.99 0-1.64 1.42-2.99 3.15-2.99h27.9c1.73 0 3.15-1.34 3.15-2.99 0-1.64-1.42-2.99-3.15-2.99H37.61c-1.73 0-3.15-1.34-3.15-2.99 0-1.64 1.42-2.99 3.15-2.99h5.88C48.69 3.23 55.88 0 63.84 0zM13.38 20.42H3.15C1.42 20.42 0 21.77 0 23.41c0 1.65 1.42 2.99 3.15 2.99h10.23c1.73 0 3.15-1.34 3.15-2.99 0-1.64-1.42-2.99-3.15-2.99zM27.81 8.46h-4.73c-1.73 0-3.15 1.35-3.15 2.99 0 1.65 1.42 2.99 3.15 2.99h4.73c1.73 0 3.15-1.34 3.15-2.99 0-1.64-1.42-2.99-3.15-2.99z" fill="url(#id0)"/><path d="M72.57 7.28l5.5 5.89 9.89-.03a28.587 28.587 0 014.55 16.8c-.53-.99-1.04-1.75-1.04-1.75s-.71-.01-1.29.72c-1.35 1.72-.68 3.61.39 4.9-.2-.06-.38-.13-.55-.21l-.96.17c-1.31.23-2.65 1.47-3.62 2.44-.64.65-.96 1.5-1.64 2.14-.6.56-1.31.84-2.12.91-1.09.11-1.32-.22-2.11-.3-.76-.08-2.97.86-3.86 1.06l-.51.11c-1.59 1.45-3.99 2.15-6.01 2.59-3.19.68-5.17.52-7.55.21-1.5 2.25-4.23.78-6.29.33-4.15.53-10.19 3.69-8.1 10.97 0 .49-1.8-.74-1.26-2.38.06-1.94.42-6.87 6.57-9.61l-3.81-.45s-2.85 4.53-4.07 8.43h-1.8c.34-2.61.28-3.38-.07-5.98h-.02c1.73 0 3.15-1.34 3.15-2.99 0-.92-.44-1.75-1.14-2.3l-.02-.41a24.9 24.9 0 00-.07-.86c-.13-1.3-.19-2.81.2-4.08.21-.71.6-1.27.82-1.93.04-.11.07-.22.09-.33l.43-1.98-1.43 1.44c-1.41 1.42-.49 1.37-2.86 1.73-3.15.47-5.91-.41-7.47 3.14-.34.78-.57 1.74-.55 2.59H32.8c.03-1.61.41-3.34.72-4.02 2.21-4.94 6.26-2.07 14.29-7.29 2.01-1.3 4.65-3.11 7.41-3.36l-1.8 1.49-.13.1-.46.47c6.51-3.47 13.7-9.92 17.6-16.29.61-1.01.77-1.99 2.14-2.08zM41.15 38.26H38.87c.72-.37 1.54-.59 2.22-.05l.06.05z" fill="#d65e13"/><path d="M95.22 25.67c.39-.31.92-.53.55-1.32-.17-.35-.54-.58-.87-.84-.3.8-.01 1.48.32 2.16zM84.2 30.88c-2.93-1.25-7.8-1.54-11.6-1.17-.63-2.55-1.17-2.98-1.34-5.96-.31 1.77.04 5.03 1.3 6.64 3.1.23 6.36-.59 9.2.6l-2.54 2.45-1.23-.34c.45.6.38.45 1.09.86 1.99-1.14 3.22-3.12 5.12-3.08zM47.93 54.71l1.08 1.3c-1.93 1.79-4.38 1.43-6.45 1.24-.22-4.69-.26-2.69.3-6.87.39-2.96.3-3.6-.15-6.84-.19-1.38 1.92-.79 1.41-5.8-.47-4.6.85-5.26 1.12-6.52-1.22 1.22-.51 1.49-3.19 1.89-3.33.51-5.62-.38-7.02 2.8-.42.96-.84 2.76-.05 3.72 1.58.11 4.32-3.63 6.49-1.88 1.92 1.55 1.05 5.09.13 6.38-.59-2.26-1.88-3.23-1.19-5.3-2.39.24-4.17 3.24-6.59 2.62-1.71-1.03-.87-5.94-.3-7.21 2.21-4.94 6.26-2.07 14.29-7.29 2.01-1.3 4.65-3.11 7.41-3.36l-1.8 1.49-.13.1-.46.47c6.51-3.47 13.7-9.92 17.6-16.29.68-1.11.8-2.2 2.62-2.08 6.99.49 13.96 2.75 19.5 6.26 1.45.91 4.21 2.71 5.41 4.08l-1.27.84c6.08-1.81 8.09 3.62 12.64 2.1-.14.52.07.15-.28.67-1.26 1.88-4.1.61-5.03.32-1.98-.62-4.15-.74-6.31.18l1.34-.05c-.46.74-.82 1.63-1.07 2.68-.45 1.97.1 1.1-1.23 2.5-1.47 1.55-1.78 2.67-1.81 4.62l-.14.99c-3.37.66-6.17.23-4.62-3.56-.24-.45-.62-.56-1.46-2.81-.63-1.69-.62-2.46-.65-4.11l-.25.99c-.04.43 0 .86.06 1.31.07.55.17.98.28 1.51.04.14.13.51.14.63l.03.76c-.77.36-5.27-1.97-6.12-2.52.01-.83 1.04-3.88-.4-5.87.65 3.38.58 3.34-.24 6.01 1.81 1.57 5.89 2.56 6.33 3.93.32 1.01.61 2.52.91 3.62-6.63 1.18-4.81 4.4-7.58 4.67-.89.08-1.25-.25-1.82-.31-1.25-.13-3.02.8-4.32 1.08l1.16-3.19c-1.76 1.43-.09 4.28-7.67 5.89-4.64.99-6.7.17-10.52-.24.56.22 1.78.56 2.14.97-.88 1.43-2.62.31-4.27-.06.34-1.17 1.12-1.54 1.86-4.39.46-1.73.39-3.75-.32-5.69.27 2.82.27 5.5-.78 7.35-1.58 2.79-2.57 2.84-5.6 4.63-2.32 1.38-3.66 3.4-4.42 5.36-.41 1.05-.68 2.34-.68 3.58 0 1.06.33 1.5 1.66 2.53.6.46-.04.06.28.17z" fill="#fefefe"/><path d="M69.38 8.46c-6.52 10.65-9.87 10.45-14.87 15.23l.66-2c-1.75.85-6.23 2.96-8.4 4.37-8.04 5.22-12.09 2.35-14.3 7.29-.57 1.26-1.41 6.18.3 7.21.13.03.26.05.39.07-.28-.63-.37-1.48-.36-2.37.03-1.61.41-3.34.72-4.02 2.21-4.94 6.26-2.07 14.29-7.29 2.82-1.82 2.84-1.75 6.12-2.29l-.51.42-.13.1-.46.47c6.51-3.47 13.7-9.92 17.6-16.29.61-1.01.77-1.99 2.14-2.08.14-.01.3-.01.48 0 6.99.49 13.96 2.75 19.5 6.26.97.61 2.53 1.62 3.82 2.64-1.36-1.27-3.61-2.74-4.86-3.53C85.96 9.14 79 6.88 72 6.39c-1.82-.12-1.94.97-2.62 2.07z" fill="#fbae10"/><path class="fil4" d="M115.99 34V12.65h14.67v3.61h-10.35v5.07h8.95v3.6h-8.95V34z"/><path id="1" class="fil4" d="M137.21 23.29l-3.69-.65c.41-1.51 1.13-2.63 2.15-3.36 1.02-.72 2.54-1.08 4.55-1.08 1.82 0 3.18.21 4.08.64.89.43 1.52.98 1.88 1.65.36.66.55 1.88.55 3.66l-.06 4.77c0 1.36.06 2.36.19 3.01.13.64.37 1.33.73 2.07h-4.05c-.11-.27-.24-.67-.4-1.19-.06-.25-.11-.41-.14-.48-.7.69-1.44 1.2-2.24 1.54-.79.34-1.64.52-2.54.52-1.58 0-2.83-.44-3.75-1.3-.91-.86-1.37-1.95-1.37-3.28 0-.86.21-1.65.63-2.33.41-.68.99-1.21 1.75-1.57.75-.36 1.83-.68 3.25-.96 1.91-.35 3.24-.69 3.97-1v-.41c0-.8-.19-1.36-.58-1.71-.39-.33-1.13-.5-2.21-.5-.73 0-1.29.14-1.7.43-.41.29-.74.8-1 1.53zm5.49 3.31c-.52.18-1.35.39-2.49.63-1.13.24-1.88.48-2.23.71-.53.38-.8.86-.8 1.44s.22 1.07.65 1.49c.42.42.96.62 1.63.62.73 0 1.44-.24 2.11-.72.49-.37.82-.82.97-1.36.11-.35.16-1.01.16-1.99v-.82z"/><path id="2" class="fil4" d="M149.3 29.65l4.11-.63c.17.79.53 1.39 1.06 1.8.54.41 1.29.62 2.25.62 1.05 0 1.85-.2 2.39-.59.35-.27.53-.64.53-1.09 0-.31-.1-.57-.29-.77-.2-.2-.66-.38-1.37-.55-3.3-.73-5.39-1.39-6.28-1.99-1.23-.84-1.84-2.01-1.84-3.49 0-1.35.53-2.48 1.59-3.39 1.06-.92 2.7-1.37 4.92-1.37 2.12 0 3.7.34 4.72 1.03 1.03.7 1.74 1.72 2.13 3.08l-3.85.72c-.16-.61-.48-1.08-.94-1.4-.46-.32-1.12-.48-1.98-.48-1.09 0-1.86.15-2.33.45-.32.21-.47.49-.47.83 0 .29.13.54.41.75.37.27 1.65.65 3.83 1.15 2.19.5 3.72 1.1 4.58 1.82.86.73 1.29 1.75 1.29 3.05 0 1.42-.59 2.64-1.78 3.66-1.18 1.02-2.94 1.53-5.26 1.53-2.11 0-3.78-.43-5.01-1.28-1.23-.85-2.04-2-2.41-3.46z"/><path id="3" class="fil4" d="M174.41 18.52v3.25h-2.8v6.27c0 1.27.02 2.01.08 2.22.05.21.17.39.36.52.19.14.42.21.69.21.39 0 .93-.13 1.65-.39l.35 3.18c-.95.4-2.03.61-3.23.61-.73 0-1.4-.13-1.99-.38-.59-.24-1.02-.57-1.29-.96-.28-.4-.47-.93-.58-1.6-.08-.48-.13-1.45-.13-2.9v-6.78h-1.88v-3.25h1.88v-3.07l4.09-2.41v5.48h2.8z"/><path id="4" class="fil5" d="M182.1 34V16.26h-6.32v-3.61h16.94v3.61h-6.29V34z"/><path id="5" class="fil5" d="M197.75 34h-4.09V18.52h3.79v2.2c.65-1.04 1.24-1.72 1.76-2.04.52-.33 1.11-.48 1.77-.48.94 0 1.84.25 2.7.77l-1.27 3.56c-.69-.44-1.33-.67-1.92-.67-.58 0-1.06.16-1.46.48-.4.31-.71.88-.94 1.7-.23.83-.34 2.56-.34 5.19V34z"/><path id="6" class="fil5" d="M208.49 23.29l-3.7-.65c.42-1.51 1.14-2.63 2.16-3.36 1.02-.72 2.53-1.08 4.54-1.08 1.82 0 3.18.21 4.08.64.89.43 1.52.98 1.88 1.65.37.66.55 1.88.55 3.66l-.06 4.77c0 1.36.06 2.36.19 3.01.13.64.38 1.33.73 2.07h-4.05c-.11-.27-.24-.67-.39-1.19a5.03 5.03 0 00-.15-.48c-.69.69-1.44 1.2-2.23 1.54-.8.34-1.64.52-2.54.52-1.59 0-2.84-.44-3.76-1.3-.91-.86-1.37-1.95-1.37-3.28 0-.86.21-1.65.63-2.33.42-.68 1-1.21 1.75-1.57.75-.36 1.84-.68 3.25-.96 1.91-.35 3.24-.69 3.97-1v-.41c0-.8-.19-1.36-.58-1.71-.39-.33-1.13-.5-2.2-.5-.73 0-1.3.14-1.71.43-.41.29-.74.8-.99 1.53zm5.48 3.31c-.52.18-1.35.39-2.49.63-1.13.24-1.87.48-2.22.71-.53.38-.8.86-.8 1.44s.21 1.07.64 1.49c.43.42.97.62 1.63.62.73 0 1.44-.24 2.11-.72.49-.37.82-.82.97-1.36.11-.35.16-1.01.16-1.99v-.82z"/><path id="7" class="fil5" d="M236.22 34h-3.78v-2.27c-.63.88-1.38 1.54-2.24 1.99-.86.44-1.73.67-2.61.67-1.78 0-3.31-.72-4.58-2.15-1.27-1.44-1.9-3.44-1.9-6.01 0-2.62.61-4.62 1.85-5.99 1.24-1.36 2.8-2.04 4.69-2.04 1.73 0 3.23.72 4.49 2.15v-7.7h4.08V34zm-10.91-8.04c0 1.66.23 2.86.68 3.6.66 1.07 1.58 1.61 2.76 1.61.94 0 1.74-.41 2.4-1.21.66-.81.99-2 .99-3.6 0-1.79-.32-3.07-.96-3.86-.64-.78-1.46-1.17-2.46-1.17-.96 0-1.77.38-2.43 1.16-.65.77-.98 1.93-.98 3.47z"/><path id="8" class="fil5" d="M249.19 29.11l4.09.69c-.53 1.49-1.36 2.63-2.48 3.41-1.14.78-2.55 1.18-4.25 1.18-2.69 0-4.68-.88-5.97-2.64-1.02-1.41-1.53-3.19-1.53-5.34 0-2.57.67-4.58 2.01-6.03 1.34-1.46 3.03-2.18 5.08-2.18 2.29 0 4.11.76 5.44 2.28 1.33 1.52 1.96 3.85 1.9 6.99h-10.22c.03 1.21.35 2.16.99 2.83.62.68 1.41 1.02 2.34 1.02.64 0 1.18-.18 1.61-.53.44-.34.77-.91.99-1.68zm.24-4.15c-.03-1.18-.33-2.09-.92-2.7-.58-.63-1.28-.93-2.12-.93-.89 0-1.62.32-2.2.98-.59.65-.87 1.54-.86 2.65h6.1z"/><path id="9" class="fil5" d="M260.74 34h-4.09V18.52h3.79v2.2c.65-1.04 1.23-1.72 1.76-2.04.52-.33 1.11-.48 1.77-.48.94 0 1.83.25 2.7.77l-1.27 3.56c-.69-.44-1.33-.67-1.92-.67-.58 0-1.06.16-1.46.48-.4.31-.71.88-.94 1.7-.23.83-.34 2.56-.34 5.19V34z"/><path class="fil4" d="M122.97 42.2c0 .47-.07.92-.22 1.33-.15.42-.36.78-.62 1.07-.34.37-.73.65-1.18.84-.45.19-1.02.28-1.71.28h-1.09v4.03h-1.3V38.94h2.43c.58 0 1.07.05 1.47.16.4.11.76.28 1.07.52.36.27.64.62.85 1.05.2.42.3.93.3 1.53zm-1.35.04c0-.37-.06-.7-.17-.97-.11-.27-.29-.5-.52-.67-.21-.15-.44-.25-.71-.31-.27-.07-.61-.1-1.01-.1h-1.06v4.28h.87c.52 0 .94-.04 1.26-.14.32-.09.59-.26.8-.5.19-.21.33-.45.41-.7.09-.26.13-.55.13-.89z"/><path id="1" class="fil4" d="M129.81 45.7c0 1.37-.3 2.42-.89 3.16-.59.74-1.38 1.11-2.36 1.11-1.01 0-1.81-.38-2.39-1.14-.58-.77-.87-1.81-.87-3.13 0-1.35.3-2.4.9-3.15.59-.75 1.38-1.12 2.36-1.12s1.77.37 2.36 1.12c.59.74.89 1.79.89 3.15zm-1.27 0c0-1.04-.17-1.82-.51-2.32-.35-.51-.84-.76-1.47-.76-.64 0-1.13.25-1.47.76-.35.5-.52 1.28-.52 2.32 0 1.01.17 1.78.52 2.3.34.53.83.79 1.47.79.63 0 1.12-.26 1.46-.77.35-.52.52-1.29.52-2.32z"/><path id="2" class="fil4" d="M139.91 41.65l-1.85 8.1h-1.13l-1.78-6.25-1.77 6.25h-1.13l-1.86-8.1h1.27l1.29 6.27 1.73-6.27h1.01l1.77 6.27 1.22-6.27z"/><path id="3" class="fil4" d="M144.16 49.93c-1.16 0-2.07-.36-2.71-1.09-.64-.73-.97-1.76-.97-3.1 0-1.32.32-2.36.94-3.14.62-.79 1.44-1.17 2.45-1.17.45 0 .85.07 1.2.21.35.15.65.38.91.69.27.31.47.68.61 1.13.14.45.21.99.21 1.64v.74h-5.07c0 .94.21 1.66.64 2.15.43.5 1.02.75 1.78.75.27 0 .53-.03.79-.1s.5-.16.71-.26c.22-.12.41-.22.56-.33.15-.1.28-.2.38-.29h.07v1.49c-.14.06-.32.14-.53.23-.22.1-.41.17-.58.22-.24.08-.46.13-.65.17-.19.04-.44.06-.74.06zm1.45-5.13c-.01-.37-.05-.68-.12-.95-.07-.26-.17-.49-.3-.67-.15-.2-.33-.36-.56-.47-.22-.1-.5-.15-.84-.15-.32 0-.6.05-.83.16-.23.11-.44.26-.63.47-.18.22-.32.45-.42.71-.1.26-.16.56-.18.9h3.88z"/><path id="4" class="fil4" d="M151.9 43.12h-.07c-.09-.03-.19-.04-.29-.05-.1-.01-.22-.01-.37-.01-.33 0-.66.08-.98.24-.33.16-.64.4-.93.71v5.74h-1.23v-8.1h1.23v1.2c.45-.44.84-.75 1.17-.93.33-.18.66-.27.97-.27.13 0 .22 0 .28.01l.22.03v1.43z"/><path id="5" class="fil4" d="M155.95 49.93c-1.16 0-2.06-.36-2.71-1.09-.64-.73-.96-1.76-.96-3.1 0-1.32.31-2.36.93-3.14.62-.79 1.44-1.17 2.45-1.17.45 0 .85.07 1.2.21.35.15.66.38.92.69.26.31.46.68.6 1.13.14.45.21.99.21 1.64v.74h-5.07c0 .94.21 1.66.64 2.15.43.5 1.02.75 1.78.75.27 0 .54-.03.79-.1.26-.07.5-.16.71-.26.22-.12.41-.22.56-.33.16-.1.28-.2.38-.29h.07v1.49c-.14.06-.32.14-.53.23-.22.1-.41.17-.58.22-.24.08-.45.13-.65.17-.19.04-.44.06-.74.06zm1.45-5.13c-.01-.37-.05-.68-.12-.95-.07-.26-.17-.49-.3-.67-.15-.2-.33-.36-.56-.47-.22-.1-.5-.15-.83-.15-.33 0-.61.05-.84.16-.23.11-.44.26-.63.47-.18.22-.32.45-.42.71-.09.26-.15.56-.18.9h3.88z"/><path id="6" class="fil4" d="M165.45 49.75h-1.23v-.83c-.19.18-.36.33-.49.45-.14.11-.31.22-.5.31-.17.1-.35.17-.54.22-.19.05-.41.07-.66.07-.39 0-.76-.09-1.1-.27a2.29 2.29 0 01-.86-.81c-.24-.35-.43-.79-.56-1.32-.13-.52-.2-1.13-.2-1.81 0-.71.09-1.32.25-1.84.17-.52.4-.98.69-1.36.27-.36.59-.63.97-.83.38-.21.77-.3 1.19-.3.36 0 .68.04.95.13.27.09.56.23.86.42v-3.53h1.23v11.3zm-1.23-1.98v-4.66c-.3-.16-.58-.27-.82-.33s-.51-.09-.79-.09c-.63 0-1.13.26-1.49.79-.36.52-.53 1.27-.53 2.26 0 .95.13 1.68.41 2.19.27.5.72.75 1.32.75.32 0 .65-.08.98-.24.33-.17.64-.39.92-.67z"/><path id="7" class="fil4" d="M176.26 45.67c0-.97-.13-1.7-.4-2.2-.27-.5-.69-.75-1.29-.75-.33 0-.67.09-1.01.26-.35.18-.66.4-.94.67v4.63c.31.17.59.29.83.36s.5.1.79.1c.63 0 1.12-.24 1.48-.74.36-.49.54-1.27.54-2.33zm1.27-.1c0 1.32-.29 2.39-.87 3.19-.58.81-1.31 1.21-2.18 1.21-.4 0-.74-.05-1.02-.16-.29-.11-.56-.25-.84-.44l-.08.38h-1.15v-11.3h1.23v4.05c.31-.31.65-.57 1.01-.77.36-.2.78-.3 1.23-.3.83 0 1.48.36 1.96 1.09.47.74.71 1.75.71 3.05z"/><path id="8" class="fil4" d="M184.49 41.65l-3.92 11.09h-1.32l1.31-3.38-2.65-7.71h1.32l2 6.01 1.98-6.01z"/><path id="9" class="fil4" d="M196.29 46.43c0 .54-.09 1.01-.27 1.43-.18.41-.43.75-.74 1.01-.36.32-.76.55-1.17.68-.42.13-.96.2-1.62.2h-2.79V38.94h2.58c.69 0 1.21.03 1.56.08.34.05.68.17.99.36.35.2.61.48.77.81.16.34.24.74.24 1.19 0 .51-.12.96-.36 1.36-.25.4-.58.72-1 .95v.06c.57.17 1.02.49 1.34.95.32.46.47 1.04.47 1.73zm-1.8-4.84c0-.25-.04-.48-.12-.67a.927.927 0 00-.38-.45c-.2-.13-.44-.21-.69-.24-.26-.02-.61-.04-1.06-.04H191v3.14h1.46c.41 0 .7-.02.9-.07.19-.05.38-.14.59-.28.19-.14.33-.33.42-.55.08-.23.12-.5.12-.84zm.45 4.89c0-.4-.05-.74-.15-1-.11-.26-.32-.48-.63-.66-.21-.13-.43-.2-.67-.24-.24-.03-.58-.05-1.03-.05H191v3.97h1.05c.56 0 1.01-.03 1.33-.08.33-.06.61-.18.86-.37.24-.19.42-.4.53-.64.12-.24.17-.55.17-.93z"/><path id="10" class="fil4" d="M198.81 49.75h-1.23v-8.1h1.23v8.1zm.09-9.47h-1.4v-1.41h1.4v1.41z"/><path id="11" class="fil4" d="M206.33 49.75h-1.23v-4.61c0-.38-.01-.72-.05-1.05-.03-.32-.09-.58-.18-.77-.1-.2-.24-.35-.42-.45-.18-.1-.42-.15-.73-.15s-.62.09-.95.27c-.32.18-.63.42-.94.71v6.05h-1.24v-8.1h1.24v.9c.36-.36.72-.64 1.08-.83.36-.2.73-.29 1.13-.29.72 0 1.28.26 1.68.78.41.53.61 1.29.61 2.28v5.26z"/><path id="12" class="fil4" d="M212.12 47.75v-2.24c-.29.03-.66.07-1.1.12-.45.05-.81.12-1.08.22-.33.11-.6.28-.81.5-.21.23-.32.55-.32.96 0 .46.12.81.36 1.05.23.23.57.35 1.02.35.39 0 .74-.09 1.05-.28.31-.18.61-.41.88-.68zm0 1.13c-.1.09-.24.2-.4.35-.17.15-.33.27-.49.35-.22.13-.43.23-.63.29-.2.07-.48.1-.85.1-.3 0-.58-.06-.85-.18-.27-.13-.51-.31-.71-.53-.2-.23-.35-.5-.47-.83-.12-.32-.18-.67-.18-1.03 0-.56.11-1.04.32-1.44.22-.39.55-.7 1.01-.94.41-.2.89-.35 1.45-.43.56-.08 1.16-.14 1.8-.18v-.26c0-.32-.05-.58-.13-.78-.09-.2-.21-.35-.37-.46-.16-.11-.35-.19-.57-.23-.23-.03-.46-.05-.7-.05-.28 0-.62.05-1 .14-.38.1-.76.24-1.15.43h-.07v-1.39c.23-.07.55-.15.98-.24.42-.08.84-.13 1.25-.13.5 0 .92.05 1.27.13.34.09.65.24.93.47.26.23.46.52.59.87.13.35.2.78.2 1.29v5.55h-1.23v-.87z"/><path id="13" class="fil4" d="M218.93 43.12h-.06c-.09-.03-.19-.04-.29-.05-.1-.01-.23-.01-.37-.01-.33 0-.66.08-.98.24-.33.16-.64.4-.93.71v5.74h-1.23v-8.1h1.23v1.2c.45-.44.84-.75 1.17-.93.33-.18.66-.27.97-.27.12 0 .22 0 .28.01l.21.03v1.43z"/><path id="14" class="fil4" d="M225.63 41.65l-3.93 11.09h-1.31l1.31-3.38-2.65-7.71h1.31l2 6.01 1.99-6.01z"/><path id="15" class="fil4" d="M227.3 49.75h-1.57v-2.06h1.57z"/><path id="16" class="fil4" d="M232.32 49.93c-.5 0-.96-.09-1.38-.26-.42-.17-.78-.43-1.08-.78-.3-.35-.53-.78-.7-1.31-.16-.53-.25-1.16-.25-1.87 0-.71.09-1.33.26-1.85.17-.51.4-.95.69-1.3.29-.35.65-.63 1.08-.82.42-.19.89-.28 1.38-.28.4 0 .79.06 1.16.18.37.13.7.28 1 .44v1.53h-.08c-.08-.08-.2-.17-.33-.28-.14-.11-.31-.21-.5-.33-.17-.09-.37-.17-.61-.25-.23-.07-.45-.11-.66-.11-.64 0-1.15.27-1.54.81-.38.53-.58 1.28-.58 2.26 0 .95.19 1.7.56 2.23.37.53.89.8 1.56.8.4 0 .78-.09 1.14-.27.36-.18.68-.42.96-.71h.08v1.53c-.13.07-.28.14-.46.23s-.35.16-.5.2c-.21.07-.4.12-.56.16-.17.03-.38.05-.64.05z"/><path id="17" class="fil4" d="M241.6 45.7c0 1.37-.3 2.42-.89 3.16-.59.74-1.38 1.11-2.36 1.11-1.02 0-1.82-.38-2.39-1.14-.59-.77-.88-1.81-.88-3.13 0-1.35.3-2.4.9-3.15.6-.75 1.39-1.12 2.37-1.12.98 0 1.77.37 2.36 1.12.59.74.89 1.79.89 3.15zm-1.27 0c0-1.04-.18-1.82-.52-2.32-.34-.51-.83-.76-1.46-.76-.64 0-1.13.25-1.48.76-.34.5-.52 1.28-.52 2.32 0 1.01.18 1.78.52 2.3.35.53.84.79 1.48.79.63 0 1.11-.26 1.46-.77.34-.52.52-1.29.52-2.32z"/><path id="18" class="fil4" d="M251.14 49.75v-4.69c0-.37-.01-.71-.04-1.03-.02-.32-.08-.56-.16-.75a.901.901 0 00-.37-.42c-.16-.09-.38-.14-.65-.14-.26 0-.53.09-.82.26-.29.17-.59.42-.9.75.01.08.01.18.02.29.01.11.01.25.01.4v5.33H247v-4.69c0-.37-.01-.71-.04-1.03-.03-.32-.08-.56-.16-.75a.92.92 0 00-.38-.42c-.16-.09-.38-.14-.65-.14s-.55.09-.84.28c-.29.18-.57.42-.85.71v6.04h-1.23v-8.1h1.23v.9c.33-.36.65-.63.96-.83.32-.2.67-.29 1.04-.29.43 0 .82.1 1.15.32.33.22.59.58.76 1.08.37-.46.74-.81 1.09-1.05.35-.24.74-.35 1.15-.35.31 0 .6.05.86.16.25.11.48.28.67.52.2.25.35.56.45.93.11.36.16.82.16 1.38v5.33h-1.23z"/></g></g></svg>